<svg width="60" height="60" viewBox="0 0 60 60" fill="none" xmlns="http://www.w3.org/2000/svg">
<path d="M2.52738 21.6907L2.52738 38.3224C2.52225 40.8912 3.03796 43.4333 4.04211 45.789C5.0154 48.0768 6.4189 50.1477 8.1732 51.8845C9.94272 53.6432 12.0273 55.0383 14.3134 55.9936C16.6962 56.9953 19.2492 57.508 21.8265 57.5024H38.1801C40.7577 57.5079 43.3112 56.9952 45.6945 55.9936C47.9783 55.0369 50.0608 53.642 51.8292 51.8845C53.5826 50.1469 54.986 48.0762 55.9603 45.789C56.9629 43.4328 57.4786 40.891 57.475 38.3224V21.6907C57.4797 19.1215 56.964 16.579 55.9603 14.2227C54.986 11.9354 53.5826 9.86473 51.8292 8.12714C50.0608 6.36964 47.9783 4.97471 45.6945 4.01804C43.3121 3.01629 40.7596 2.50313 38.1828 2.50785L21.8292 2.50785C18.1888 2.50028 14.6182 3.52612 11.5166 5.47062C10.313 6.22901 9.1946 7.11985 8.18147 8.12714C6.55032 9.74389 5.2218 11.6505 4.26107 13.7534C4.18946 13.908 4.12336 14.0653 4.05313 14.2227C3.04505 16.578 2.52557 19.1206 2.52738 21.6907V21.6907Z" fill="#D58900"/>
<path d="M58.2856 13.2433C57.184 10.6569 55.5962 8.31588 53.6119 6.35264C51.6109 4.36502 49.2543 2.78789 46.6703 1.7069C43.9755 0.574478 41.0885 -0.00550804 38.174 3.94218e-05L21.8259 3.94218e-05C18.9115 -0.00550804 16.0245 0.574478 13.3297 1.7069C13.1451 1.78416 12.9634 1.86424 12.7788 1.94712C10.4096 3.01558 8.24669 4.50756 6.39218 6.35264C4.81553 7.91288 3.48641 9.71385 2.4525 11.691C2.18719 12.1967 1.94208 12.7141 1.71716 13.2433L1.70477 13.2714C1.64143 13.4217 1.57946 13.5734 1.51887 13.7251C1.29304 14.2927 1.09245 14.8668 0.917107 15.4475C0.44864 16.9954 0.157525 18.5935 0.0495794 20.2098C0.0165307 20.7001 8.35507e-06 21.1932 8.35507e-06 21.6877L8.35507e-06 38.3194C-0.00255119 41.2226 0.582994 44.0952 1.71992 46.7567C2.82192 49.3436 4.41019 51.6851 6.39494 53.6488C8.39366 55.6356 10.7479 57.2123 13.3297 58.2931C16.0245 59.4255 18.9115 60.0055 21.8259 60H38.1795C39.4621 60.0009 40.7423 59.8899 42.0063 59.6684C42.7068 59.5448 43.3999 59.3875 44.0856 59.1964C44.9664 58.95 45.8315 58.6483 46.6758 58.2931C46.7887 58.2467 46.9003 58.1976 47.0118 58.1526C49.4633 57.0794 51.7005 55.5556 53.6119 53.6572C55.3329 51.9507 56.7572 49.9584 57.8243 47.7654C57.9854 47.4366 58.1382 47.1009 58.2814 46.7623C59.4186 44.0989 60.0037 41.2244 60 38.3194V21.6877C60.0052 18.7824 59.4215 15.9074 58.2856 13.2433V13.2433ZM53.6408 44.8096C52.7929 46.7989 51.5714 48.5995 50.0454 50.11C48.5078 51.6383 46.6968 52.8511 44.7108 53.6825C44.4409 53.7967 44.1687 53.903 43.8942 54.0014C42.6813 54.4378 41.4239 54.7328 40.1459 54.8808C39.4931 54.9564 38.8366 54.9939 38.1795 54.9932H21.8259C19.5856 54.9979 17.3663 54.5525 15.2947 53.6825C13.3091 52.8511 11.4985 51.6383 9.96144 50.11C8.43456 48.5999 7.21259 46.7992 6.36464 44.8096C5.49196 42.7619 5.04331 40.5523 5.04682 38.3194L5.04682 21.6877C5.04552 20.6505 5.14143 19.6156 5.33324 18.5971C5.4316 18.0721 5.55615 17.5526 5.70642 17.0405C5.77619 16.7961 5.85284 16.553 5.93638 16.3114C6.06582 15.9368 6.20857 15.5622 6.36464 15.1876C6.43624 15.0218 6.5106 14.856 6.58634 14.6917C7.42109 12.8978 8.56419 11.2711 9.96144 9.88858C11.4984 8.35985 13.309 7.14658 15.2947 6.31471C15.6679 6.15737 16.0465 6.01408 16.428 5.88624C18.1693 5.29872 19.9919 5.00084 21.8259 5.00401L38.1795 5.00401C40.4199 4.99918 42.6392 5.44455 44.7108 6.31471C46.6969 7.14654 48.5079 8.35981 50.0454 9.88858C51.5714 11.3986 52.7929 13.1988 53.6408 15.1876C54.5141 17.2357 54.9632 19.4458 54.96 21.6792V38.3194C54.9633 40.5498 54.5152 42.757 53.6436 44.8026L53.6408 44.8096Z" fill="#D58900"/>
<path d="M16.4317 5.89708C16.0503 6.02491 15.6716 6.1682 15.2984 6.32554C13.3127 7.15741 11.5022 8.37068 9.96518 9.89941C8.56793 11.2819 7.42483 12.9086 6.59007 14.7025C4.81784 13.9032 3.39674 12.6669 2.45898 11.6934C3.49289 9.71626 4.82202 7.91528 6.39867 6.35505C8.25285 4.50846 10.4158 3.01504 12.7853 1.94531C14.3391 2.88879 15.6024 4.25788 16.4317 5.89708Z" fill="#D58900"/>
<path opacity="0.33" d="M5.98438 13.7029C6.74909 13.6823 7.50094 13.672 8.23994 13.672C40.1774 13.7029 50.9141 33.3563 53.8045 40.6712C54.1635 41.5504 54.4679 42.4517 54.7161 43.3699C54.7161 43.3699 54.9185 43.2758 55.2834 43.1002C55.722 41.5475 55.9436 39.9396 55.9416 38.3238V21.6893C55.9454 19.3252 55.4701 16.9859 54.5453 14.8183C53.6479 12.7128 52.3548 10.8071 50.7392 9.20884C49.112 7.59109 47.1953 6.30724 45.0934 5.42706C42.9003 4.50613 40.551 4.03451 38.1793 4.0391L21.8271 4.0391C19.4559 4.03451 17.107 4.50613 14.9144 5.42706C12.8124 6.30702 10.8957 7.59089 9.26859 9.20884C7.94652 10.5191 6.83784 12.0362 5.98438 13.7029V13.7029Z" fill="#D58900"/>
<path d="M35.9414 7.80039C35.9414 7.80039 42.1752 7.45199 46.6946 10.6199C51.214 13.7877 48.6555 14.6938 42.7715 12.6737C36.8874 10.6536 30.4071 8.21762 35.9414 7.80039Z" fill="#D58900"/>
<path d="M30.8262 7.66142C28.8571 7.5392 26.5877 7.55747 26.3082 8.56613C26.0287 9.57479 29.6709 9.43712 31.0369 9.12806C32.4029 8.819 31.9471 7.73166 30.8262 7.66142Z" fill="#D58900"/>
<path d="M5.70741 17.0433C5.55714 17.5554 5.43258 18.0749 5.33423 18.5999C3.97097 17.7064 2.26345 16.5362 0.927734 15.4489C1.10216 14.8692 1.30274 14.295 1.5295 13.7266C2.64214 14.6706 4.30697 16.0389 5.70741 17.0433Z" fill="#D58900"/>
<path d="M4.06643 21.6893L4.06643 38.3209C4.06257 40.6845 4.53797 43.0234 5.46274 45.1905C6.35979 47.2962 7.65289 49.202 9.26885 50.8C10.8952 52.4188 12.8121 53.7028 14.9147 54.5818C17.1071 55.5034 19.4561 55.9751 21.8274 55.9697H38.181C40.5527 55.975 42.9021 55.5034 45.0951 54.5818C47.1975 53.7026 49.1144 52.4187 50.7409 50.8C52.8869 48.6808 54.4533 46.0266 55.2851 43.1002C55.7236 41.5475 55.9452 39.9395 55.9433 38.3238V21.6893C55.9471 19.3252 55.4717 16.9859 54.547 14.8183C53.6495 12.7128 52.3565 10.8071 50.7409 9.20884C49.1136 7.59109 47.197 6.30723 45.0951 5.42706C42.9019 4.50613 40.5526 4.03451 38.181 4.0391L21.8274 4.0391C19.4562 4.03451 17.1073 4.50613 14.9147 5.42706C12.8126 6.30702 10.8959 7.59089 9.26885 9.20884C7.94666 10.5195 6.83799 12.0371 5.98464 13.7043C5.80104 14.0676 5.62707 14.4395 5.46274 14.8197C4.5382 16.9869 4.06281 19.3257 4.06643 21.6893V21.6893ZM6.0287 21.6893C6.02648 18.8598 6.7919 16.085 8.24021 13.672C9.67022 11.3113 11.6707 9.36492 14.0499 8.01959C16.4291 6.67426 19.1072 5.97504 21.8274 5.98899L38.181 5.98899C46.9072 5.98899 53.981 13.0131 53.981 21.6893V38.3209C53.981 39.1078 53.9221 39.8935 53.8048 40.6712C52.6632 48.2263 46.103 54.017 38.181 54.017H21.8274C13.1025 54.017 6.0287 46.9929 6.0287 38.3167L6.0287 21.6893Z" fill="#D58900"/>
<path d="M4.36722 20.7693L4.36722 36.7028C4.36577 39.1157 4.83056 41.5052 5.735 43.7347C6.63945 45.9643 7.96581 47.99 9.63824 49.6962C11.3107 51.4024 13.2964 52.7555 15.4818 53.6782C17.6672 54.6009 20.0095 55.0751 22.3746 55.0736H37.6294C41.7745 55.0748 45.793 53.6171 49.0069 50.9464C52.2207 48.2758 54.4331 44.5558 55.2705 40.4143C55.5152 39.1929 55.6379 37.9494 55.6368 36.7028V20.7693C55.6382 18.3564 55.1735 15.9668 54.269 13.7373C53.3646 11.5078 52.0382 9.48203 50.3658 7.77584C48.6933 6.06966 46.7077 4.71653 44.5222 3.79383C42.3368 2.87113 39.9946 2.39696 37.6294 2.39844L22.3746 2.39844C18.917 2.39994 15.5327 3.41586 12.6253 5.32507C9.71794 7.23429 7.4101 9.95624 5.97697 13.1664C5.91087 13.3153 5.83927 13.4656 5.78419 13.6173C4.8447 15.8797 4.36274 18.3123 4.36722 20.7693V20.7693Z" fill="url(#paint0_linear_2920_17207)"/>
<path d="M56.3877 12.6842C54.8304 8.92218 52.2203 5.71226 48.8838 3.45611C45.5473 1.19997 41.6326 -0.00221041 37.6298 2.75367e-05L22.375 2.75367e-05C19.6516 -0.00450954 16.9552 0.551661 14.4475 1.63524C14.2753 1.7097 14.1046 1.78556 13.9352 1.86423C9.79211 3.79225 6.39937 7.07744 4.296 11.1979C4.04813 11.6825 3.82092 12.1812 3.60748 12.6842C3.60748 12.6926 3.6006 12.7024 3.59646 12.7109C3.53725 12.8513 3.47942 13.0002 3.42296 13.1463C3.21273 13.6905 3.02545 14.2402 2.86113 14.7956C2.42668 16.2824 2.15829 17.8144 2.06107 19.3627C2.03078 19.8319 2.01563 20.3025 2.01563 20.7773L2.01563 36.701C2.01418 39.4291 2.5398 42.1307 3.56243 44.6514C4.58505 47.1721 6.08463 49.4625 7.97544 51.3916C9.86626 53.3207 12.1112 54.8507 14.582 55.8941C17.0528 56.9376 19.7009 57.474 22.375 57.4727L37.6298 57.4727C38.8268 57.4735 40.0217 57.3668 41.2004 57.1538C41.8541 57.0366 42.5017 56.8861 43.1406 56.7028C43.9631 56.466 44.7702 56.1769 45.5573 55.8375C45.662 55.7925 45.7666 55.7462 45.8699 55.697C50.2801 53.7011 53.855 50.1765 55.9608 45.748C56.1109 45.432 56.2541 45.1117 56.3877 44.7871C57.4498 42.2287 57.995 39.478 57.9905 36.6996V20.7675C57.9944 17.9905 57.4493 15.2413 56.3877 12.6842V12.6842ZM52.0541 42.9173C50.4644 46.7461 47.4773 49.794 43.7245 51.4165C43.4711 51.5247 43.2177 51.6272 42.9616 51.7213C41.8318 52.1383 40.6586 52.4212 39.4653 52.5642C38.856 52.6363 38.2431 52.6724 37.6298 52.6724L22.375 52.6724C20.3187 52.6741 18.2823 52.2621 16.3822 51.46C14.4822 50.6579 12.7558 49.4815 11.3018 47.9981C9.84784 46.5147 8.69486 44.7533 7.90883 42.8148C7.12279 40.8764 6.71913 38.7988 6.72095 36.701L6.72095 20.7675C6.72073 19.7778 6.81015 18.7903 6.98809 17.8174C7.07989 17.3145 7.19556 16.8176 7.3351 16.3269C7.40257 16.0923 7.4728 15.8605 7.55129 15.6245C7.67109 15.2634 7.80467 14.908 7.95063 14.5554C8.01673 14.3952 8.08558 14.2365 8.15719 14.0791C9.79447 10.4681 12.6907 7.60812 16.2817 6.05621C16.6301 5.9059 16.9826 5.76822 17.3392 5.646C18.9609 5.08398 20.6624 4.79918 22.375 4.80311L37.6298 4.80311C39.685 4.80256 41.7202 5.2151 43.6191 6.01717C45.518 6.81925 47.2433 7.99513 48.6967 9.47766C50.15 10.9602 51.3028 12.7203 52.0891 14.6574C52.8755 16.5946 53.2801 18.6708 53.2797 20.7675V36.701C53.2839 38.834 52.8661 40.9459 52.0514 42.9103L52.0541 42.9173Z" fill="#F2D847"/>
<path d="M17.3405 5.64897C16.9838 5.77119 16.6313 5.90886 16.2829 6.05917C12.6919 7.61108 9.7957 10.4711 8.15842 14.0821C6.50598 13.3165 5.1799 12.1336 4.30273 11.2008C6.4061 7.0804 9.79884 3.79521 13.9419 1.86719C15.3978 2.78038 16.5749 4.09015 17.3405 5.64897V5.64897Z" fill="#FFEFA1"/>
<path opacity="0.33" d="M7.5957 13.1222C8.30717 13.1025 9.00854 13.0931 9.69981 13.0941C39.4932 13.1236 49.5097 31.9468 52.206 38.9512C52.5411 39.7948 52.8254 40.6585 53.057 41.5375C53.057 41.5375 53.2456 41.4476 53.5858 41.2776C53.9958 39.788 54.2025 38.2479 54.1999 36.7007V20.7672C54.201 18.5472 53.7731 16.3487 52.9407 14.2976C52.1084 12.2464 50.8878 10.3827 49.3489 8.81313C47.81 7.24354 45.9829 5.99883 43.9721 5.15016C41.9613 4.3015 39.8062 3.86553 37.6301 3.86719L22.3754 3.86719C19.3147 3.86863 16.3141 4.73394 13.7056 6.36736C11.0971 8.00078 8.98248 10.3386 7.5957 13.1222V13.1222Z" fill="white"/>
<path d="M35.542 7.47173C35.542 7.47173 41.3586 7.13878 45.5737 10.1718C49.7887 13.2048 47.4037 14.0716 41.9149 12.1385C36.426 10.2055 30.3795 7.8721 35.542 7.47173Z" fill="white"/>
<path d="M30.7703 7.33093C28.9333 7.21433 26.8154 7.23118 26.5552 8.1977C26.2949 9.16422 29.6921 9.03076 30.9617 8.73153C32.2313 8.43231 31.8154 7.39695 30.7703 7.33093Z" fill="white"/>
<path d="M7.32956 16.3169C7.19094 16.8077 7.07528 17.3045 6.98256 17.8074C5.71156 16.9519 4.11833 15.8309 2.86523 14.7899C3.02956 14.2336 3.21684 13.6838 3.42707 13.1406C4.47223 14.0439 6.02414 15.3546 7.32956 16.3169Z" fill="#FFEFA1"/>
<path d="M5.80471 20.7672L5.80471 36.7007C5.80308 38.921 6.23056 41.1199 7.0627 43.1716C7.89483 45.2233 9.11529 47.0874 10.6543 48.6575C12.1932 50.2275 14.0205 51.4726 16.0316 52.3215C18.0427 53.1704 20.1981 53.6066 22.3745 53.6049H37.6292C39.8059 53.6075 41.9618 53.172 43.9732 52.3234C45.9847 51.4748 47.8124 50.2298 49.3515 48.6595C50.8907 47.0893 52.1111 45.2248 52.9429 43.1727C53.7747 41.1206 54.2016 38.9213 54.1991 36.7007V20.7672C54.2002 18.5472 53.7723 16.3487 52.9399 14.2976C52.1075 12.2464 50.887 10.3827 49.348 8.81313C47.8091 7.24354 45.982 5.99883 43.9712 5.15016C41.9604 4.3015 39.8053 3.86553 37.6292 3.86719L22.3745 3.86719C19.3138 3.86863 16.3132 4.73394 13.7047 6.36736C11.0963 8.00078 8.98163 10.3386 7.59485 13.1222C7.41997 13.472 7.25886 13.8246 7.10739 14.1912C6.24399 16.2715 5.80092 18.5081 5.80471 20.7672V20.7672ZM7.63479 20.7672C7.63479 16.7806 9.18714 12.9572 11.9503 10.1383C14.7135 7.31928 18.4613 5.7356 22.369 5.7356L37.6238 5.7356C41.5315 5.7356 45.2792 7.31928 48.0424 10.1383C50.8056 12.9572 52.358 16.7806 52.358 20.7672V36.7007C52.3592 38.675 51.979 40.6302 51.239 42.4545C50.499 44.2788 49.4137 45.9364 48.0452 47.3325C46.6768 48.7286 45.052 49.8357 43.2638 50.5907C41.4756 51.3456 39.559 51.7336 37.6238 51.7323H22.3745C18.4668 51.7323 14.719 50.1486 11.9558 47.3296C9.19264 44.5106 7.6403 40.6873 7.6403 36.7007L7.63479 20.7672Z" fill="#D58900"/>
<g opacity="0.18">
<path opacity="0.18" d="M39.0059 14.7109L39.2276 15.2546C35.6473 16.6594 21.877 22.1762 20.1654 24.5924C18.6506 26.7404 20.0869 29.3871 20.8222 30.4801L18.0847 31.6418L15.2852 24.7751L39.0059 14.7109Z" fill="white"/>
</g>
<g opacity="0.18">
<path opacity="0.18" d="M18.5671 19.0653C18.4643 19.4815 18.4733 19.9183 18.5932 20.3296C18.797 20.9646 20.7896 21.1725 21.485 21.1557C22.1804 21.1388 19.648 20.6584 19.3313 20.015C19.0146 19.3716 18.6841 18.0159 18.5671 19.0653Z" fill="white"/>
</g>
<g opacity="0.18">
<path opacity="0.18" d="M29.4015 12.5174C29.4604 12.1806 29.5846 11.8592 29.7669 11.5721C29.9492 11.285 30.186 11.038 30.4632 10.8456C30.981 10.5141 32.8606 11.3837 33.702 12.2504C34.5434 13.1172 32.1405 12.0243 31.2702 11.8936C30.3999 11.763 29.2308 13.7002 29.4015 12.5174Z" fill="white"/>
</g>
<g opacity="0.18">
<path opacity="0.18" d="M27.7704 29.766C27.7704 29.766 31.9139 40.0619 32.4041 41.131C32.8943 42.2 32.4936 40.8163 30.7324 36.2296C28.9712 31.6428 27.5625 28.8542 27.7704 29.766Z" fill="white"/>
</g>
<g opacity="0.18">
<path opacity="0.18" d="M39.0059 14.7109L39.2276 15.2546C35.6473 16.6594 21.877 22.1762 20.1654 24.5924C18.6506 26.7404 20.0869 29.3871 20.8222 30.4801L18.0847 31.6418L15.2852 24.7751L39.0059 14.7109Z" fill="white"/>
</g>
<g opacity="0.18">
<path opacity="0.18" d="M18.5671 19.0653C18.4643 19.4815 18.4733 19.9183 18.5932 20.3296C18.797 20.9646 20.7896 21.1725 21.485 21.1557C22.1804 21.1388 19.648 20.6584 19.3313 20.015C19.0146 19.3716 18.6841 18.0159 18.5671 19.0653Z" fill="white"/>
</g>
<g opacity="0.18">
<path opacity="0.18" d="M29.4015 12.5174C29.4604 12.1806 29.5846 11.8592 29.7669 11.5721C29.9492 11.285 30.186 11.038 30.4632 10.8456C30.981 10.5141 32.8606 11.3837 33.702 12.2504C34.5434 13.1172 32.1405 12.0243 31.2702 11.8936C30.3999 11.763 29.2308 13.7002 29.4015 12.5174Z" fill="white"/>
</g>
<g opacity="0.18">
<path opacity="0.18" d="M27.7704 29.766C27.7704 29.766 31.9139 40.0619 32.4041 41.131C32.8943 42.2 32.4936 40.8163 30.7324 36.2296C28.9712 31.6428 27.5625 28.8542 27.7704 29.766Z" fill="white"/>
</g>
<path d="M27.8037 32.0562L31.0552 32.0295L32.2252 46.7525L25.7177 46.2135L27.8037 32.0562Z" fill="#4E546E"/>
<path d="M27.4547 32.4181L31.4304 32.3854L31.753 36.445C31.753 36.445 31.056 36.9907 29.4552 37.0069C27.6402 37.0257 26.8752 36.3496 26.8752 36.3496L27.4547 32.4181Z" fill="#303650"/>
<path d="M30.7643 37.8992L34.3494 39.9429L36.475 47.7283L31.6384 46.1097L30.7643 37.8992Z" fill="#6C728C"/>
<path d="M28.5303 37.9136L29.5111 37.9058L30.2605 47.5667L27.3283 47.3496L28.5303 37.9136Z" fill="#6C728C"/>
<path d="M27.375 37.9219L23.7346 39.8766L21.7543 46.852L26.7081 45.2197L27.375 37.9219Z" fill="#6C728C"/>
<path d="M24.7494 33.2732C25.0956 34.9822 32.7606 36.1651 33.4419 33.6687C34.0956 31.2739 34.8198 26.5861 35.1642 22.984C35.564 18.8056 33.0576 13.2711 29.2322 11C24.6698 12.9949 22.3838 19.406 22.7928 22.6585C23.0687 24.8523 24.4294 31.6929 24.7494 33.2732Z" fill="#ECE8EF"/>
<path d="M29.4959 28.7908C30.9225 28.8493 33.0256 28.8136 34.5123 28.2569C34.6117 27.8151 34.7071 27.3625 34.7977 26.9071C34.1201 27.3745 32.6093 27.7477 30.2232 27.7217C26.9363 27.686 24.2452 26.9637 23.3869 26.424C23.4966 26.867 23.6126 27.3258 23.7293 27.7807C25.3983 28.4375 27.9325 28.7268 29.4959 28.7908Z" fill="#EA0B34"/>
<path d="M23.6367 17.6632C25.2853 19.2959 32.8577 20.2923 34.5709 18.2169C33.876 15.3733 31.8587 12.4127 29.2412 11C26.336 12.1549 24.426 15.0652 23.6367 17.6632Z" fill="#EA0B34"/>
<path d="M30.9509 17.419C31.3542 17.8456 33.0794 17.4663 33.5075 16.9423C32.7789 14.8663 31.0254 12.8664 28.9746 11.7969C30.3727 14.3722 30.7045 15.7648 30.9509 17.419Z" fill="white" fill-opacity="0.4"/>
<defs>
<linearGradient id="paint0_linear_2920_17207" x1="-575726" y1="8695.91" x2="-575362" y2="28266" gradientUnits="userSpaceOnUse">
<stop offset="0.7" stop-color="#FEE581"/>
<stop offset="0.75" stop-color="#FDE37C"/>
<stop offset="0.8" stop-color="#FADC6E"/>
<stop offset="0.86" stop-color="#F5D157"/>
<stop offset="0.93" stop-color="#EEC134"/>
</linearGradient>
</defs>
</svg>
