<svg width="109" height="71" viewBox="0 0 109 71" fill="none" xmlns="http://www.w3.org/2000/svg">
<path opacity="0.03" d="M109 35.5C109 55.1061 91.5596 53.25 57.9877 71C31.741 71 10.4639 55.1061 10.4639 35.5C10.4639 15.8939 31.741 0 57.9877 0C82.4037 19.2292 109 15.8939 109 35.5Z" fill="white"/>
<ellipse opacity="0.03" cx="53.6284" cy="35.5" rx="47.5239" ry="35.5" fill="white"/>
<ellipse opacity="0.01" cx="49.268" cy="35.5" rx="47.5239" ry="35.5" fill="white"/>
<path fill-rule="evenodd" clip-rule="evenodd" d="M53.1052 7.32506C46.579 6.85232 37.5344 6.53671 28.7992 8.07719C28.0252 7.32597 27.2533 6.5882 26.2876 6.10021C25.1351 5.51811 23.7358 5.64157 23.1248 7.43667C22.8272 8.31117 19.1577 9.40873 18.335 9.57767C17.073 9.83796 15.1342 10.2644 14.2684 11.4751C13.7828 12.1564 12.8472 13.292 12.3569 14.2829C7.97846 17.2938 4.46299 21.4731 2.50274 27.2324C-6.69218 54.2478 11.5924 48.8693 22.7062 56.5995C34.7003 64.946 44.8542 68.0059 55.5193 67.3352C64.0883 66.7957 67.9339 62.8851 70.3515 55.9202C72.0888 54.5314 73.0895 52.7786 73.7167 49.362C80.5877 42.1243 97.0767 34.4521 84.4932 22.4883C78.4313 16.7268 71.7271 12.9507 65.8543 10.6015C64.7742 8.68282 63.1733 6.4204 61.7761 7.76434C60.599 8.89565 58.667 6.18599 57.1342 6.12182C56.0914 6.07749 54.6592 6.86567 53.7762 7.19193L53.3535 7.34505L53.1052 7.32506Z" fill="#A4A4A4"/>
<path fill-rule="evenodd" clip-rule="evenodd" d="M84.2619 26.9979C85.7628 28.2128 86.1469 33.9476 82.9518 31.4743C74.1459 24.6629 81.1828 36.51 74.3558 31.2291C72.202 29.5616 70.9653 32.4496 69.732 35.1974C68.4689 38.0094 64.7008 31.4132 62.89 31.0495C60.0459 30.4754 57.2774 38.8933 59.7774 41.4488C62.9485 44.691 64.5064 41.2181 66.795 42.9904C69.5953 45.1566 65.5992 46.5037 65.0702 48.058C64.7371 49.0366 66.9221 49.2635 67.3845 49.6208C68.5897 50.5528 66.588 54.9508 63.8673 52.8465C58.3677 48.5922 56.1743 55.3166 52.1322 56.803C50.2185 57.5068 53.1697 52.169 50.3633 51.5475C46.289 50.6432 46.0015 57.5625 42.287 56.0471C40.2736 55.2254 25.8513 50.6564 32.2632 45.7771C39.9882 39.8996 40.2826 43.0619 35.0041 38.9786C33.5408 37.8462 38.7582 33.3842 38.8099 33.2322C39.7604 30.4396 30.3607 28.28 31.5404 39.9566C31.9437 43.9429 23.8312 32.5067 22.2599 37.1234C19.2329 46.017 18.0566 36.4958 15.5315 33.0596C11.0106 26.908 13.1347 39.4389 10.9474 37.7477C8.02094 35.4828 9.4837 29.2682 8.07721 25.6931C5.63242 19.4728 24.3891 14.502 28.7341 13.0844C36.2619 10.6302 29.7322 14.0688 29.4079 16.122C29.3965 16.195 38.8662 19.8806 36.5813 13.439C35.2699 9.73842 48.8379 10.9953 50.5187 10.9561C56.3058 10.8235 65.3492 18.1361 67.1438 16.0427C69.6615 13.1067 84.1415 23.7305 84.2619 26.9979Z" fill="#87848B"/>
<path fill-rule="evenodd" clip-rule="evenodd" d="M29.8849 25.18C28.9737 24.9617 27.0705 24.6646 26.4212 26.158C26.0925 26.9109 25.479 27.5695 25.8442 28.6855C26.3651 30.2751 28.4362 29.3179 29.4807 30.1267C30.3476 30.7981 31.623 30.806 32.2986 29.7915C32.9586 28.8028 33.5623 28.8476 34.2369 27.8595C36.4376 24.6402 29.9839 25.327 29.8849 25.18Z" fill="#716976"/>
<path fill-rule="evenodd" clip-rule="evenodd" d="M44.0055 34.2854C42.9216 33.1783 42.4704 32.9027 41.4341 33.8964C41.1812 34.1383 41.1309 35.1025 41.2278 35.3386C41.4005 35.7582 42.9678 36.6441 43.2044 36.639C44.0271 36.6203 45.0185 35.3207 44.0055 34.2854Z" fill="#716976"/>
<path fill-rule="evenodd" clip-rule="evenodd" d="M65.5904 26.0587C64.8283 25.6038 63.7971 26.0855 63.3566 25.932C62.2403 25.4331 60.4132 23.9694 59.4329 24.4987C57.0429 25.7857 60.5832 27.2171 61.5314 27.9498C62.0668 28.3648 61.9841 29.2153 62.5241 29.6325C63.3348 30.2602 64.6628 29.723 65.6695 30.0076C66.0521 30.1181 67.3828 31.8016 67.4928 30.5042C67.5984 29.2709 66.3464 26.5121 65.5904 26.0587Z" fill="#716976"/>
<path fill-rule="evenodd" clip-rule="evenodd" d="M84.2314 28.4665C83.6416 26.8937 82.5794 25.2613 81.7675 24.6096C78.6084 22.0737 75.3609 20.2277 72.194 17.7776C71.4103 17.1694 69.5453 16.5545 69.1506 17.7143C68.6716 19.1216 72.094 20.2211 72.6421 20.6463C74.3786 21.9894 71.0934 21.753 71.0043 21.9003C70.7529 22.3077 72.7568 23.6463 73.142 23.7845C74.3812 24.2261 73.822 28.5199 75.2477 27.0172C76.826 25.3542 74.7855 22.3127 77.5704 23.5417C78.1495 23.7968 82.1317 24.9754 80.8682 26.2066C79.1585 27.8731 85.1111 30.8083 84.2314 28.4665Z" fill="#716976"/>
<path fill-rule="evenodd" clip-rule="evenodd" d="M50.1037 31.1802C50.4239 32.0381 51.7541 35.7936 52.5935 35.1695C53.8757 34.2186 49.423 22.518 54.0612 25.4139C56.4488 26.9073 53.9042 27.3507 53.5663 28.1265C52.7124 30.0869 55.3374 31.7149 55.8728 30.1418C56.2368 29.0726 55.9044 26.5108 57.2609 27.3178C61.9964 30.1291 56.4823 24.4578 56.2098 22.032C55.9349 19.5856 58.0717 21.5554 58.936 20.933C62.6041 18.2854 55.8806 12.803 54.0131 12.9963C52.7411 13.1283 55.6331 16.2044 55.877 16.7302C56.5127 18.1088 54.7341 17.4532 54.3477 17.0384C53.2348 16.1784 52.2354 15.2885 51.0848 15.3163C49.7429 15.3502 50.7416 16.8019 50.9387 17.8399C51.4754 20.6611 46.4703 15.5498 45.8705 15.9826C44.3754 17.0621 49.1976 19.1453 46.9964 19.3762C44.8126 19.6036 45.461 20.1362 43.499 16.6707C43.0569 15.887 41.3074 11.8051 40.4842 14.2237C39.7354 16.4236 43.3205 17.5502 41.4904 19.0145C40.0013 20.2024 37.5894 18.8947 35.8082 20.0061C33.3074 21.5672 42.2224 24.5593 42.0618 27.5949C41.8208 32.1253 47.9416 25.3757 50.1037 31.1802Z" fill="#716976"/>
<path fill-rule="evenodd" clip-rule="evenodd" d="M57.0983 40.1408C54.6816 34.891 54.1387 40.5764 52.2784 41.1115C50.1698 41.7177 50.5064 36.9894 49.9177 36.5337C47.3619 34.5566 47.9594 39.5894 46.2027 40.538C45.4358 40.953 43.1445 39.3466 42.2797 38.8777C40.7136 38.0317 40.3174 40.3241 41.3785 41.7345C42.5313 43.2665 43.7349 43.2247 41.3906 44.8389C40.4573 45.4826 35.7656 46.8657 38.5432 48.5976C40.7632 49.9838 44.3606 45.402 44.8521 46.6007C46.3286 50.1988 45.9421 49.1689 48.3664 47.3711C52.3077 44.4492 51.3681 49.2769 53.2853 49.458C54.2941 49.551 53.7049 47.5824 53.5562 46.5715C53.209 44.2114 57.6963 44.5251 58.5966 44.7396C59.2207 43.825 58.1518 42.4297 57.0983 40.1408Z" fill="#716976"/>
<path fill-rule="evenodd" clip-rule="evenodd" d="M24.6246 21.6649C26.1801 21.0271 31.5023 24.158 28.432 17.3889C28.0628 16.5764 26.9861 15.1485 26.4676 16.672C25.8758 18.4108 26.0872 18.2512 25.5453 18.021C22.9725 16.9338 21.2458 21.2298 19.1311 19.5937C18.5835 19.1713 17.6568 19.3181 17.365 20.1755C17.1354 20.8502 17.9778 22.0078 17.306 22.6525C16.0723 23.8355 12.6532 20.6395 11.5422 23.4661C10.4229 26.3166 14.8035 26.6442 15.5979 26.8346C17.5887 27.3086 17.9436 27.6425 18.5037 30.2292C18.9131 32.115 20.6116 36.4885 22.0319 32.8443C22.6948 31.1411 21.1139 29.1237 21.894 27.8061C22.7146 26.4168 25.4294 31.2481 24.9436 26.3839C24.8073 25.0252 22.3797 22.5885 24.6246 21.6649Z" fill="#716976"/>
</svg>
