<svg width="100" height="40" viewBox="0 0 100 40" fill="none" xmlns="http://www.w3.org/2000/svg">
<path opacity="0.3" d="M77.2196 2.14844H22.4699C10.0818 2.14844 0 10.6383 0 21.0725C0 31.5067 10.0795 39.9966 22.4699 39.9966H77.2196C89.6077 39.9966 99.6895 31.5076 99.6895 21.0725C99.6895 10.6373 89.6088 2.14844 77.2196 2.14844Z" fill="black"/>
<path d="M77.5321 0H22.7813C10.3932 0 0.3125 8.56789 0.3125 19.0986C0.3125 29.6293 10.392 38.1972 22.7813 38.1972H77.5321C89.9202 38.1972 100.001 29.6293 100.001 19.0986C100.001 8.56789 89.9202 0 77.5321 0Z" fill="white"/>
<path d="M77.4282 0.984375H22.8754C11.0507 0.984375 1.46484 9.05751 1.46484 19.0162V19.182C1.46484 29.1407 11.0507 37.2139 22.8754 37.2139H77.4282C89.253 37.2139 98.8388 29.1407 98.8388 19.182V19.0162C98.8388 9.05751 89.253 0.984375 77.4282 0.984375Z" fill="#6154B9"/>
<path d="M77.472 2.13281H22.8497C12.2322 2.13281 3.625 9.38174 3.625 18.3238V18.472C3.625 27.414 12.2322 34.6629 22.8497 34.6629H77.472C88.0895 34.6629 96.6967 27.414 96.6967 18.472V18.3238C96.6967 9.38174 88.0895 2.13281 77.472 2.13281Z" fill="#6E5AEF"/>
<path opacity="0.15" d="M77.472 31.7439H22.8486C12.7864 31.7439 4.53385 25.2304 3.6991 16.9375C3.65395 17.3948 3.625 17.856 3.625 18.3231V18.4723C3.625 20.5978 4.12211 22.7026 5.08795 24.6664C6.05379 26.6302 7.46945 28.4145 9.25409 29.9175C11.0387 31.4206 13.1574 32.6128 15.4892 33.4262C17.8209 34.2397 20.3201 34.6583 22.8439 34.6583H77.4674C79.9912 34.6583 82.4904 34.2397 84.8221 33.4262C87.1539 32.6128 89.2726 31.4206 91.0572 29.9175C92.8418 28.4145 94.2575 26.6302 95.2233 24.6664C96.1892 22.7026 96.6863 20.5978 96.6863 18.4723V18.3231C96.6863 17.856 96.6574 17.3948 96.6122 16.9375C95.7867 25.2304 87.5341 31.7439 77.472 31.7439Z" fill="#403C3C"/>
<path d="M77.4713 2.13281H22.8478C17.7507 2.13281 12.8622 3.83813 9.258 6.8736C5.65375 9.90908 3.62891 14.0261 3.62891 18.3189V18.4681C3.62891 18.7333 3.637 18.9985 3.65206 19.2608C3.8926 15.1089 6.02063 11.194 9.59516 8.32751C13.1697 5.46101 17.9167 3.86262 22.8525 3.86355H77.4759C82.4117 3.86262 87.1587 5.46101 90.7332 8.32751C94.3077 11.194 96.4358 15.1089 96.6763 19.2608C96.6914 18.9985 96.6995 18.7333 96.6995 18.4681V18.3189C96.6995 16.1927 96.202 14.0872 95.2356 12.1229C94.2692 10.1587 92.8527 8.37396 91.0671 6.87084C89.2815 5.36772 87.1617 4.17564 84.8289 3.36267C82.4961 2.5497 79.9959 2.13179 77.4713 2.13281Z" fill="#6B5EC3"/>
<path opacity="0.1" d="M81.9329 5.88413C81.9331 6.09168 81.8603 6.29462 81.7235 6.46728C81.5868 6.63994 81.3923 6.77457 81.1647 6.85413C80.9371 6.93369 80.6866 6.95461 80.4448 6.91424C80.2031 6.87386 79.981 6.77401 79.8067 6.62732C79.6324 6.48063 79.5136 6.29369 79.4654 6.09014C79.4173 5.8866 79.4419 5.67559 79.5361 5.48382C79.6304 5.29205 79.79 5.12814 79.9949 5.01281C80.1998 4.89748 80.4407 4.83594 80.6872 4.83594C81.0174 4.83594 81.334 4.94634 81.5676 5.14288C81.8012 5.33943 81.9326 5.60604 81.9329 5.88413Z" fill="white"/>
<path opacity="0.1" d="M20.4485 5.88413C20.4488 6.09168 20.3759 6.29462 20.2392 6.46728C20.1024 6.63994 19.9079 6.77457 19.6803 6.85413C19.4527 6.93369 19.2022 6.95461 18.9605 6.91424C18.7187 6.87386 18.4967 6.77401 18.3223 6.62732C18.148 6.48063 18.0292 6.29369 17.9811 6.09014C17.9329 5.8866 17.9575 5.67559 18.0517 5.48382C18.146 5.29205 18.3057 5.12814 18.5106 5.01281C18.7154 4.89748 18.9563 4.83594 19.2028 4.83594C19.533 4.83594 19.8497 4.94634 20.0833 5.14288C20.3169 5.33943 20.4482 5.60604 20.4485 5.88413Z" fill="white"/>
<path opacity="0.1" d="M17.2006 6.51954C17.2006 6.64393 17.1568 6.76551 17.0747 6.86894C16.9926 6.97236 16.876 7.05298 16.7396 7.10058C16.6031 7.14818 16.453 7.16063 16.3081 7.13637C16.1632 7.1121 16.0302 7.0522 15.9258 6.96424C15.8213 6.87629 15.7502 6.76423 15.7214 6.64223C15.6926 6.52023 15.7074 6.39379 15.7639 6.27887C15.8204 6.16395 15.9161 6.06571 16.0389 5.99661C16.1617 5.9275 16.3061 5.89062 16.4538 5.89062C16.5519 5.89062 16.649 5.90689 16.7396 5.9385C16.8302 5.9701 16.9125 6.01643 16.9818 6.07483C17.0512 6.13323 17.1062 6.20256 17.1437 6.27887C17.1812 6.35517 17.2006 6.43695 17.2006 6.51954Z" fill="white"/>
<path opacity="0.1" d="M87.3959 7.81199C87.2118 8.2654 85.063 8.05283 83.7362 7.48047C83.2221 7.25815 82.9732 7.04364 82.9107 6.78524C82.8818 6.62572 82.9043 6.46259 82.9757 6.31286C83.0472 6.16314 83.1651 6.03231 83.317 5.93402C84.3776 5.31972 87.6425 7.20355 87.3959 7.81199Z" fill="white"/>
</svg>
