<svg width="133" height="151" viewBox="0 0 133 151" fill="none" xmlns="http://www.w3.org/2000/svg">
<mask id="mask0_2562_188517" style="mask-type:luminance" maskUnits="userSpaceOnUse" x="5" y="1" width="122" height="149">
<path d="M110.342 149.648H22.0031C12.8644 149.648 5.45508 142.239 5.45508 133.1V17.7338C5.45508 8.59377 12.8644 1.18448 22.0031 1.18448H110.342C119.48 1.18448 126.89 8.59377 126.89 17.7338V133.1C126.89 142.239 119.48 149.648 110.342 149.648Z" fill="white"/>
</mask>
<g mask="url(#mask0_2562_188517)">
<path d="M110.342 149.648H22.0031C12.8644 149.648 5.45508 142.239 5.45508 133.1V17.7338C5.45508 8.59377 12.8644 1.18448 22.0031 1.18448H110.342C119.48 1.18448 126.89 8.59377 126.89 17.7338V133.1C126.89 142.239 119.48 149.648 110.342 149.648Z" fill="#303650"/>
</g>
<path opacity="0.5" d="M110.341 149.648V148.46H22.0026C17.7573 148.46 13.9253 146.743 11.1413 143.961C8.35994 141.177 6.64258 137.345 6.64258 133.1V17.7333C6.64258 13.4879 8.35994 9.65465 11.1413 6.87065C13.9253 4.08931 17.7573 2.37328 22.0026 2.37195H110.341C114.587 2.37328 118.419 4.08931 121.203 6.87065C123.984 9.65465 125.701 13.4879 125.701 17.7333V133.1C125.701 137.345 123.984 141.177 121.203 143.961C118.419 146.743 114.587 148.459 110.341 148.46V149.648V150.836C120.137 150.835 128.076 142.895 128.077 133.1V17.7333C128.076 7.93727 120.137 -0.00273132 110.341 -0.00273132H22.0026C12.2066 -0.00273132 4.26793 7.93727 4.2666 17.7333V133.1C4.26793 142.895 12.2066 150.835 22.0026 150.836H110.341V149.648Z" fill="#7877EE"/>
<path opacity="0.5" d="M29.4492 124.266C20.6812 124.266 13.5479 117.132 13.5479 108.364V25.5003C13.5479 16.7323 20.6812 9.59897 29.4492 9.59897H102.895C111.663 9.59897 118.795 16.7323 118.795 25.5003V108.364C118.795 117.132 111.663 124.266 102.895 124.266H29.4492Z" fill="#7877EE"/>
<path d="M102.894 122.117H29.4491C21.8504 122.117 15.6904 115.957 15.6904 108.359V25.4945C15.6904 17.8958 21.8504 11.7358 29.4491 11.7358H102.894C110.493 11.7358 116.653 17.8958 116.653 25.4945V108.359C116.653 115.957 110.493 122.117 102.894 122.117Z" fill="#3A405A"/>
<path d="M60.2212 77.4896L51.1391 77.2699L51.0202 77.2588C50.6721 76.7698 50.4395 76.1443 50.3809 75.4467L49.4578 64.5452C49.0334 59.5657 50.5239 54.6004 53.4573 51.2264L60.0382 43.6518L60.2212 77.4896Z" fill="#F52349"/>
<path d="M57.1044 77.4226L60.2222 77.4981C60.2222 77.4981 56.4402 63.3457 57.544 46.5321L54.2561 50.3167C53.8859 65.3821 57.1044 77.4226 57.1044 77.4226Z" fill="#E2262E"/>
<path d="M76.7808 77.4896L85.8629 77.2699L85.9817 77.2588C86.3298 76.7698 86.5624 76.1443 86.6211 75.4467L87.5442 64.5452C87.9685 59.5657 86.4781 54.6004 83.5446 51.2264L76.9637 43.6518L76.7808 77.4896Z" fill="#F52349"/>
<path d="M79.8975 77.4226L76.7797 77.4981C76.7797 77.4981 80.5618 63.3457 79.4579 46.5321L82.7459 50.3167C83.1161 65.3821 79.8975 77.4226 79.8975 77.4226Z" fill="#E2262E"/>
<path d="M73.6252 39.0367L68.6836 39.0367L68.6836 80.8281L73.8915 80.8281C74.7078 74.604 76.6089 59.1619 76.6755 51.841C76.7105 47.9388 75.2877 43.21 73.6252 39.0367Z" fill="#7877EE"/>
<path d="M75.4565 39.0367L73.627 39.0367C75.2894 43.21 76.7122 47.9388 76.6772 51.841C76.6106 59.1619 74.7095 74.604 73.8932 80.8281L76.6772 80.8281L79.1384 61.0719C80.0852 53.4735 78.767 45.8389 75.4565 39.0367Z" fill="#6E5AEF"/>
<path d="M68.6836 29.0004L68.6836 36.7812L72.6816 36.7813C71.286 33.5822 69.8828 30.9257 69.1321 29.5613L68.6836 29.0004Z" fill="#EF2D3C"/>
<path d="M70.7568 31.5883L69.1357 29.5613C69.8865 30.9257 71.2897 33.5822 72.6852 36.7813L74.2731 36.7813C73.245 34.9752 72.0754 33.2364 70.7568 31.5883Z" fill="#E2262E"/>
<path d="M61.806 39.0367C58.4958 45.8389 57.1776 53.4735 58.1247 61.0719L60.5859 80.8281L68.5778 80.8281L68.6861 39.0367L61.806 39.0367Z" fill="#6E5AEF"/>
<path d="M68.6829 39.0367L68.5742 80.8281L68.6829 80.8281L68.6829 39.0367Z" fill="#303650"/>
<path d="M68.6836 36.7788L68.6836 39.0391L75.4548 39.0391C75.083 38.2755 74.6913 37.5202 74.2694 36.7788L68.6836 36.7788Z" fill="#F8CD22"/>
<path d="M68.6907 36.7788L62.9963 36.7788C62.5744 37.5202 62.1824 38.2755 61.8105 39.0391L68.6907 39.0391L68.6907 36.7788Z" fill="#EEC318"/>
<path d="M66.5064 31.5883C65.1879 33.2364 64.018 34.9752 62.9902 36.7812L68.6846 36.7813L68.6846 29.0004L66.5064 31.5883Z" fill="#E2262E"/>
<path d="M68.5742 86.2031L71.2442 86.2031C74.2434 86.2031 76.6744 83.8215 76.6744 80.8837L76.6744 80.8301L68.5742 80.8301L68.5742 86.2031Z" fill="#858585"/>
<path d="M68.6874 86.2031L66.0167 86.2031C63.0182 86.2031 60.5869 83.8215 60.5869 80.8837L60.5869 80.8301L68.6874 80.8301L68.6874 86.2031Z" fill="#717171"/>
<path d="M68.5303 82.7422L71.1899 82.7422C74.1773 82.7422 76.5988 81.9486 76.5988 80.9697L76.5988 80.9519L68.5303 80.9519L68.5303 82.7422Z" fill="#303650"/>
<path d="M68.7805 82.7422L66.1203 82.7422C63.1336 82.7422 60.7119 81.9486 60.7119 80.9697L60.7119 80.9519L68.7805 80.9519L68.7805 82.7422Z" fill="#303650"/>
<path d="M68.7184 44.5659L68.6646 44.5632C65.6917 44.5632 63.2822 46.9244 63.2822 49.8363C63.2822 52.7485 65.6917 55.1094 68.6646 55.1094L68.7184 55.107C71.6661 55.0783 74.047 52.7305 74.047 49.8363C74.047 46.9421 71.6661 44.5946 68.7184 44.5659Z" fill="white" fill-opacity="0.1"/>
<path d="M68.5816 53.6038C66.4139 53.6038 64.6563 51.8823 64.6563 49.7582C64.6563 47.6343 66.4139 45.9126 68.5816 45.9126L68.6354 45.9153L68.6354 44.4878L68.5816 44.4851C65.6087 44.4851 63.1992 46.8463 63.1992 49.7582C63.1992 52.6704 65.6087 55.0313 68.5816 55.0313L68.6354 55.0289L68.6354 53.6014L68.5816 53.6038Z" fill="#EEC318"/>
<path d="M73.9595 49.7527C73.9595 46.8586 71.5786 44.511 68.6309 44.4824L68.6309 45.9099C70.7734 45.9385 72.5024 47.6467 72.5024 49.7527C72.5024 51.8592 70.7734 53.5673 68.6309 53.596L68.6309 55.0234C71.5786 54.9948 73.9595 52.6469 73.9595 49.7527Z" fill="#F8CD22"/>
<path d="M64.6543 49.7482C64.6543 51.8723 66.4119 53.5938 68.5796 53.5938L68.6334 53.5914L68.6334 45.9053L68.5796 45.9026C66.4119 45.9026 64.6543 47.6243 64.6543 49.7482Z" fill="#1C223C"/>
<path d="M72.5024 49.7505C72.5024 47.6445 70.7734 45.9363 68.6309 45.9077L68.6309 53.5938C70.7734 53.5651 72.5024 51.857 72.5024 49.7505Z" fill="#303650"/>
<path d="M67.3121 48.3509C67.3121 48.6316 67.0879 48.8594 66.8108 48.8594C66.5342 48.8594 66.3096 48.6316 66.3096 48.3509C66.3096 48.0703 66.5342 47.8425 66.8108 47.8425C67.0879 47.8425 67.3121 48.0703 67.3121 48.3509Z" fill="#F4F5F5"/>
<path opacity="0.2" d="M60.2712 67.3594C60.2265 66.7527 60.1825 66.1351 60.1394 65.5087C60.0396 64.0386 59.9398 62.5197 59.8574 60.9739C59.7723 59.4288 59.698 57.8577 59.6537 56.284C59.6002 54.7112 59.5901 53.134 59.6167 51.5797C59.6355 51.1729 59.6459 50.81 59.6853 50.4131C59.7209 50.0206 59.7616 49.6325 59.8211 49.254C59.9266 48.4925 60.0823 47.7508 60.2558 47.0282C60.9702 44.1388 62.0877 41.6014 63.1608 39.5099C63.2428 39.351 63.3248 39.1945 63.4062 39.0407L63.696 39.0407C63.6009 39.2351 63.5054 39.4339 63.4099 39.6364C62.4178 41.7511 61.4025 44.3063 60.8051 47.1564C60.6609 47.8681 60.5351 48.5962 60.4592 49.3372C60.4138 49.7086 60.3892 50.0793 60.3684 50.4499C60.3435 50.8152 60.3459 51.2227 60.3415 51.5872C60.3644 53.1214 60.4245 54.6819 60.5274 56.2427C60.6219 57.8039 60.7459 59.3643 60.8801 60.8996C61.0112 62.4352 61.1594 63.9452 61.306 65.4064C61.343 65.7709 61.38 66.1324 61.4173 66.4905L60.2712 67.3594Z" fill="white"/>
<path opacity="0.2" d="M63.698 39.0391L63.4082 39.0391C63.8489 38.2087 64.282 37.4534 64.6894 36.7788L64.8817 36.7788C64.5042 37.4544 64.1034 38.2101 63.698 39.0391Z" fill="white"/>
<path opacity="0.2" d="M64.8769 36.7813L64.6846 36.7812C65.1952 35.9355 65.6656 35.2167 66.0589 34.6342C66.8274 33.5024 67.3129 32.891 67.3129 32.891C67.3129 32.891 66.8493 33.5198 66.1228 34.6772C65.7634 35.2525 65.3371 35.9577 64.8769 36.7813Z" fill="white"/>
<path d="M73.8915 80.8281L68.6836 80.821L68.6836 74.6694L73.9833 80.0455L73.8915 80.8281Z" fill="#7877EE"/>
<path d="M68.5781 80.8203L63.2549 80.8132L61.8193 67.7036L68.5942 74.5757L68.5781 80.8203Z" fill="#6E5AEF"/>
<path d="M68.6829 80.8203L68.5742 80.82L68.5904 74.5753L68.6829 74.6688L68.6829 80.8203Z" fill="#303650"/>
<path d="M73.8926 80.8281L73.9847 80.0455L73.9867 80.0472L73.8926 80.8281Z" fill="#EF294C"/>
<path d="M73.8926 80.8281L73.9864 80.0472L74.0956 80.158L73.8926 80.8281Z" fill="#C51E25"/>
<path d="M55.0162 89.4141L55.0162 78.9279L54.9957 78.9279C53.8914 78.9279 52.9852 80.7122 52.9992 83.1052C53.0144 85.665 55.0162 89.4141 55.0162 89.4141Z" fill="#EE2A38"/>
<path d="M55.0205 89.4141L55.0205 78.9279L55.0407 78.9279C56.1452 78.9279 57.0516 80.7122 57.0375 83.1052C57.0223 85.665 55.0205 89.4141 55.0205 89.4141Z" fill="#EE252F"/>
<path d="M54.967 86.2659L55.0175 86.3438L55.0175 79.1825L55.0048 79.1825C54.3156 79.1825 53.7568 80.4478 53.7568 82.0082L53.759 82.0352C53.893 83.7571 54.3286 85.2829 54.967 86.2659Z" fill="#FBCA62"/>
<path d="M55.0809 86.2659L55.0205 86.3438L55.0205 79.1825L55.0355 79.1825C55.8625 79.1825 56.5334 80.4478 56.5334 82.0082L56.5308 82.0352C56.3701 83.7571 55.8471 85.2829 55.0809 86.2659Z" fill="#FBC442"/>
<path d="M55.0189 83.7813L55.0134 83.7662C54.6624 82.7848 54.4891 81.6277 54.5177 80.4576L54.52 80.3671C54.5332 79.8228 54.7301 79.3506 55.0142 79.1803L55.0189 79.1776L55.0189 83.7813Z" fill="#FBFAB3"/>
<path d="M55.0205 83.7812L55.0205 79.1776C55.4511 79.3523 55.7486 79.8255 55.769 80.3702L55.7722 80.4614C55.816 81.6347 55.5532 82.7953 55.0205 83.7812Z" fill="#F7F679"/>
<path d="M81.4869 89.4141L81.4869 78.9279L81.4664 78.9279C80.3621 78.9279 79.4559 80.7122 79.4699 83.1052C79.4851 85.665 81.4869 89.4141 81.4869 89.4141Z" fill="#EE2A38"/>
<path d="M81.4863 89.4141L81.4863 78.9279L81.5065 78.9279C82.611 78.9279 83.5174 80.7122 83.5033 83.1052C83.4881 85.665 81.4863 89.4141 81.4863 89.4141Z" fill="#EE252F"/>
<path d="M81.4377 86.2659L81.4883 86.3438L81.4883 79.1825L81.4755 79.1825C80.7863 79.1825 80.2275 80.4478 80.2275 82.0082L80.2297 82.0352C80.3637 83.7571 80.7993 85.2829 81.4377 86.2659Z" fill="#FBCA62"/>
<path d="M81.5467 86.2659L81.4863 86.3438L81.4863 79.1825L81.5013 79.1825C82.3284 79.1825 82.9992 80.4478 82.9992 82.0082L82.9966 82.0352C82.8359 83.7571 82.3129 85.2829 81.5467 86.2659Z" fill="#FBC442"/>
<path d="M81.4857 83.7891L81.4802 83.774C81.1292 82.7926 80.9559 81.6355 80.9845 80.4654L80.9868 80.3749C81 79.8306 81.1969 79.3584 81.481 79.1881L81.4857 79.1854L81.4857 83.7891Z" fill="#FBFAB3"/>
<path d="M81.4863 83.7891L81.4863 79.1854C81.9169 79.3601 82.2144 79.8333 82.2348 80.378L82.2381 80.4692C82.2818 81.6425 82.019 82.8031 81.4863 83.7891Z" fill="#F7F679"/>
<path d="M70.4938 85.2875C70.4081 85.2998 70.3341 85.3185 70.2729 85.3434C69.2052 85.5426 68.0817 85.5115 66.9033 85.2496C66.9524 85.6357 66.9894 85.9409 67.0139 86.1649C68.0817 86.4763 69.2113 86.4763 70.4017 86.1649C70.4262 85.9409 70.4572 85.6483 70.4938 85.2875Z" fill="#858585"/>
<path d="M65.599 78.0052C65.562 78.8021 65.562 79.5868 65.599 80.3588C67.8451 80.6825 69.9628 80.6825 71.9513 80.3588C71.9883 79.5868 71.9819 78.8021 71.9328 78.0052C69.9318 77.744 67.8209 77.744 65.599 78.0052Z" fill="#EEC318"/>
<path d="M71.1754 73.0955C70.6721 72.9833 70.1692 72.9086 69.6659 72.8715C68.5488 72.7842 67.4071 72.8588 66.2412 73.0955C66.106 73.7301 65.9893 74.3654 65.8912 75.0004C65.7809 75.7472 65.7009 76.4947 65.6518 77.2415C65.6273 77.5031 65.6088 77.7585 65.5967 78.0071C67.8186 77.7459 69.9295 77.7459 71.9305 78.0071C71.9181 77.7585 71.8999 77.5031 71.8754 77.2415C71.7648 75.8846 71.5314 74.5022 71.1754 73.0955ZM65.8176 82.7325C65.83 82.8942 65.8481 83.05 65.8727 83.1994C65.9709 83.8343 66.0939 84.4631 66.2412 85.0858C66.462 85.1482 66.6829 85.2042 66.9038 85.2536C68.0821 85.5155 69.2057 85.5465 70.2734 85.3474C70.3346 85.3225 70.4086 85.3037 70.4943 85.2915C70.7152 85.2291 70.9424 85.1605 71.1754 85.0858C71.3966 84.3138 71.5684 83.5295 71.6911 82.7325C71.8138 81.9482 71.8999 81.1577 71.949 80.3608C69.9604 80.6844 67.8428 80.6844 65.5967 80.3608C65.6333 81.1577 65.7069 81.9482 65.8176 82.7325Z" fill="#EF2D3C"/>
<path d="M71.1716 73.0938C71.1349 73.0187 71.0983 72.9444 71.0613 72.8697C70.5089 71.7365 69.6863 70.8335 68.594 70.1614C67.5874 70.871 66.8018 71.8487 66.2373 73.0938C67.4032 72.8571 68.5449 72.7824 69.6621 72.8697C70.1653 72.9069 70.6683 72.9816 71.1716 73.0938Z" fill="#303650"/>
<path d="M66.3852 73.1862C66.6813 72.5591 67.0306 71.9879 67.4636 71.4491C67.6707 71.1913 67.9091 70.9618 68.1512 70.7388C68.6528 70.2753 68.9506 70.5222 69.3998 70.8919C70.9701 72.1836 71.3171 74.0145 71.5914 75.9426C71.8102 77.483 71.8862 79.0666 71.7817 80.6199C71.7218 81.5045 71.6011 82.3847 71.4458 83.2573C71.3752 83.6529 71.2831 84.044 71.188 84.4338C71.0673 84.9283 70.8619 85.0367 70.4161 85.1656C70.3902 85.1731 70.3535 85.1871 70.3502 85.2209C70.3263 85.4531 70.3024 85.6853 70.2776 85.9176C70.2443 86.2344 69.2532 86.2391 69.0495 86.2593C68.5495 86.3084 68.0527 86.2579 67.5591 86.1815C66.9886 86.0932 67.1106 85.7866 67.0515 85.313C67.0414 85.2355 66.9745 85.1537 66.8972 85.1356C66.205 84.9736 66.2564 84.5798 66.1266 83.8916C66.0392 83.4289 65.9881 82.9637 65.9252 82.4976C65.7935 81.5195 65.7356 80.5323 65.7182 79.5464C65.6805 77.4114 65.9515 75.2715 66.3852 73.1862C66.4144 73.0467 66.1293 72.8694 66.097 73.0249C65.2673 77.0144 65.186 81.0977 66.1004 85.0807C66.1149 85.1445 66.1875 85.2076 66.248 85.2243C66.8289 85.3825 66.8014 85.5483 66.8669 86.13C66.876 86.2091 66.9446 86.2872 67.0212 86.3074C68.1875 86.6146 69.3103 86.5945 70.4806 86.3152C70.5068 86.3091 70.5428 86.2923 70.5465 86.2599C70.5687 86.055 70.5334 85.4487 70.7956 85.373C70.9082 85.3402 71.2283 85.301 71.3063 85.2031C71.4519 85.0207 71.4922 84.5307 71.5477 84.3029C71.6667 83.8146 71.7551 83.3194 71.8355 82.8232C72.1047 81.1604 72.1595 79.496 72.0634 77.8158C72.0177 77.0086 71.9155 76.2042 71.7914 75.4059C71.6798 74.6887 71.6193 73.7315 71.3006 73.0856C70.6726 71.8113 69.8193 70.8261 68.6292 70.0622C68.5959 70.0407 68.5267 70.0203 68.4904 70.0472C67.4284 70.8257 66.6612 71.83 66.097 73.0249C66.0379 73.1501 66.3142 73.3369 66.3852 73.1862Z" fill="#4D283E"/>
<path d="M66.3201 73.2375C67.955 72.9256 69.5885 72.8983 71.2204 73.2382C71.4164 73.2791 71.2647 72.9925 71.1323 72.9648C69.4766 72.6201 67.8212 72.6488 66.1637 72.9655C65.9862 72.9993 66.1866 73.2631 66.3201 73.2375Z" fill="#4D283E"/>
<path d="M65.6465 80.5013C67.7746 80.7942 69.9074 80.8297 72.0331 80.5007C72.2106 80.4734 72.0106 80.2078 71.8768 80.2287C69.7736 80.5539 67.6636 80.5177 65.5588 80.228C65.3581 80.2003 65.5103 80.4826 65.6465 80.5013Z" fill="#4D283E"/>
<path d="M65.6752 78.1462C67.775 77.911 69.8765 77.8872 71.975 78.1469C72.1761 78.1718 72.0238 77.8906 71.8869 77.8735C69.7652 77.6107 67.6415 77.6363 65.5188 77.8742C65.3423 77.894 65.5414 78.1616 65.6752 78.1462Z" fill="#4D283E"/>
<path d="M70.4232 85.156C69.2573 85.4512 68.0332 85.3601 66.867 85.1174C66.6713 85.0768 66.823 85.3635 66.9551 85.3908C68.1398 85.6372 69.3948 85.7283 70.5799 85.428C70.7567 85.3833 70.5553 85.1225 70.4232 85.156Z" fill="#4D283E"/>
<path d="M68.9222 104L68.9222 87.4686L68.8602 87.4686C65.5131 87.4686 62.7668 90.2816 62.8091 94.0541C62.8551 98.0895 68.9222 104 68.9222 104Z" fill="#EE2A38"/>
<path d="M68.915 104L68.915 87.4686L68.9761 87.4686C72.3237 87.4686 75.0709 90.2816 75.0282 94.0541C74.9821 98.0895 68.915 104 68.915 104Z" fill="#EE252F"/>
<path d="M68.7722 99.0414L68.9255 99.1641L68.9255 87.8744L68.8869 87.8744C66.798 87.8744 65.1045 89.8692 65.1045 92.3291L65.1109 92.3717C65.5171 95.0862 66.8375 97.4916 68.7722 99.0414Z" fill="#FBCA62"/>
<path d="M69.098 99.0414L68.915 99.1641L68.915 87.8744L68.9604 87.8744C71.4671 87.8744 73.5003 89.8692 73.5003 92.3291L73.4925 92.3717C73.0055 95.0862 71.4202 97.4916 69.098 99.0414Z" fill="#FBC442"/>
<path d="M68.9151 95.1328L68.8984 95.1091C67.8346 93.5619 67.3092 91.7377 67.396 89.893L67.4028 89.7504C67.443 88.8923 68.0397 88.1479 68.9007 87.8795L68.9151 87.8751L68.9151 95.1328Z" fill="#FBFAB3"/>
<path d="M68.915 95.1328L68.915 87.8751C70.22 88.1505 71.1218 88.8965 71.1835 89.7552L71.1934 89.8991C71.3261 91.7487 70.5296 93.5785 68.915 95.1328Z" fill="#F7F679"/>
<path d="M69.3208 93.9844L69.3208 88.3873L69.3099 88.3873C68.7204 88.3873 68.2368 89.3397 68.2442 90.617C68.2523 91.9832 69.3208 93.9844 69.3208 93.9844Z" fill="#EE2A38"/>
<path d="M69.3203 93.9844L69.3203 88.3873L69.3311 88.3873C69.9206 88.3873 70.4044 89.3397 70.3969 90.617C70.3888 91.9832 69.3203 93.9844 69.3203 93.9844Z" fill="#EE252F"/>
<path d="M69.2953 92.31L69.3223 92.3516L69.3223 88.5292L69.3155 88.5292C68.9476 88.5292 68.6494 89.2046 68.6494 90.0374L68.6505 90.0518C68.7221 90.9709 68.9546 91.7853 69.2953 92.31Z" fill="#FBCA62"/>
<path d="M69.3525 92.31L69.3203 92.3516L69.3203 88.5292L69.3283 88.5292C69.7698 88.5292 70.1278 89.2046 70.1278 90.0374L70.1265 90.0518C70.0407 90.9709 69.7615 91.7853 69.3525 92.31Z" fill="#FBC442"/>
<path d="M69.319 90.9922L69.316 90.9842C69.1287 90.4603 69.0361 89.8427 69.0514 89.2181L69.0526 89.1698C69.0597 88.8793 69.1648 88.6273 69.3164 88.5364L69.319 88.5349L69.319 90.9922Z" fill="#FBFAB3"/>
<path d="M69.3203 90.9922L69.3203 88.5349C69.5501 88.6282 69.709 88.8807 69.7198 89.1715L69.7216 89.2202C69.7449 89.8464 69.6046 90.4659 69.3203 90.9922Z" fill="#F7F679"/>
</svg>
