<svg width="80" height="80" viewBox="0 0 80 80" fill="none" xmlns="http://www.w3.org/2000/svg">
<g opacity="0.7">
<path d="M23.2621 12.4586C21.1815 12.0016 19.644 11.7728 18.6483 11.7728C14.9903 11.7728 11.333 13.0409 7.67496 15.576C3.22764 18.6311 1.00366 22.4662 1.00366 27.0793C1.00366 33.3198 3.18586 37.1019 7.55027 38.4268C6.61628 37.6562 6.05515 37.1474 5.86685 36.8992C5.13925 35.964 4.77575 34.4365 4.77575 32.3166C4.77575 31.6208 4.84808 30.665 4.99397 29.4486C5.32754 30.1182 5.79515 30.6893 6.39682 31.1632C6.66304 31.3733 6.94424 31.5603 7.23852 31.7243C6.94735 29.991 6.80208 28.8482 6.80208 28.2951C6.80208 24.1596 8.2361 20.5433 11.1041 17.4465C14.0476 14.296 18.1003 12.6332 23.2621 12.4586ZM0.0996094 41.2013C0.0996094 41.5492 0.0996094 41.9551 0.0996094 42.4177C0.0996094 45.181 0.774845 47.2909 2.12594 48.7455C2.49754 49.1451 2.9134 49.488 3.37291 49.7742C3.12352 49.1613 2.99882 48.5173 2.99882 47.8414C2.99882 46.7191 3.31056 45.7945 3.93405 45.0675C4.14728 44.815 4.34492 44.5762 4.52636 44.3499C3.29934 43.9184 2.18766 43.2538 1.19071 42.3547C0.78295 41.9881 0.418834 41.6041 0.0996094 41.2013ZM34.6407 77.5818C35.2031 77.9875 35.806 78.2993 36.4488 78.517C37.5499 78.8916 39.1298 79.0781 41.1873 79.0781C45.0529 79.0781 48.6586 77.8312 52.0048 75.3372C52.882 74.6918 53.6302 74.0479 54.2494 73.4044C54.1234 73.4909 53.9887 73.5739 53.8441 73.6538C50.4155 75.5272 47.4852 76.5766 45.0529 76.8024C45.225 76.7401 45.3915 76.6663 45.5517 76.5842C46.3941 76.137 47.3611 75.3784 48.4509 74.3085C46.818 75.0859 45.1658 75.751 43.4942 76.3036C40.6885 77.2388 38.2881 77.7065 36.293 77.7065C35.98 77.7065 35.4288 77.6653 34.6407 77.5818ZM51.4125 72.5315L51.3813 72.3757C51.1737 72.4173 50.8514 72.625 50.4149 72.9991C50.1861 73.1862 49.8949 73.4256 49.542 73.7161C49.7709 73.6538 50.1138 73.4979 50.5708 73.2485C51.1319 72.9368 51.4125 72.6979 51.4125 72.5315ZM7.145 52.8917C7.145 52.8505 7.145 52.8087 7.145 52.767C6.85383 52.3723 6.47974 51.9776 6.02273 51.5823C5.37866 51.0006 5.05632 50.9483 5.05632 51.4265C5.05632 51.6347 5.25397 51.9259 5.64863 52.2993C6.08507 52.7358 6.52151 52.954 6.95795 52.954C7.06208 52.954 7.12442 52.9334 7.145 52.8917Z" fill="#EC962F"/>
<path d="M10.0132 48.9657C9.88852 49.4527 9.82617 49.962 9.82617 50.4926C9.82617 51.9273 10.4914 52.9142 11.8213 53.4542C12.0289 53.5377 12.2472 53.6101 12.476 53.6724C10.7097 55.9799 9.82617 58.8891 9.82617 62.4012C9.82617 64.8746 10.6785 66.7656 12.3825 68.075C13.7959 69.1349 15.5311 69.6649 17.5886 69.6649C17.9209 69.6649 18.4091 69.5818 19.0538 69.4155C19.5108 69.2701 19.9266 69.1142 20.3007 68.9479C20.5084 70.1118 20.9554 71.057 21.6412 71.7847C22.5765 72.7412 23.844 73.2188 25.4445 73.2188C26.6291 73.2188 27.7302 72.9699 28.749 72.4706C30.1418 71.764 30.9312 70.7248 31.1182 69.3531C31.2847 70.0806 31.7105 70.7453 32.3964 71.3483C33.3939 72.18 34.6927 72.5953 36.2931 72.5953C37.3263 72.5953 38.2927 72.2835 39.1924 71.66C38.9548 71.7017 38.7266 71.7229 38.5065 71.7229C36.0749 71.7229 34.225 70.8495 32.9575 69.1037C32.0017 67.7944 31.5547 66.4439 31.617 65.051H31.3988C30.9623 66.2774 30.443 67.3585 29.8401 68.2937C28.7596 69.9766 27.6161 70.8183 26.4109 70.8183C25.0187 70.8183 23.9999 70.3407 23.3558 69.3848C23.1052 69.0271 22.6482 67.9572 21.9841 66.1733C21.6955 66.1945 21.3632 66.2045 20.9866 66.2045C18.7002 66.2045 16.8504 65.6016 15.4375 64.397C13.9412 63.1288 13.193 61.393 13.193 59.1903C13.193 57.5068 13.5153 56.0523 14.1594 54.8259C14.7349 53.7366 15.1819 52.8737 15.4999 52.239C14.0653 52.0775 13.0471 51.8387 12.4448 51.5214C11.3356 50.9428 10.5251 50.0899 10.0132 48.9657Z" fill="#FFAC48"/>
<path d="M58.552 27.9189C58.1362 26.6508 57.5439 25.8197 56.7745 25.425C57.0862 25.1133 57.3568 24.8015 57.5856 24.4898C58.3544 23.4504 58.7391 22.2758 58.7391 20.9664C58.7391 18.5766 57.6062 17.3814 55.3411 17.3814C52.9719 17.3814 50.8938 17.9432 49.1062 19.0648C48.8363 19.2313 48.5869 19.3978 48.3581 19.5636C48.2751 18.9613 48.1193 18.3896 47.8904 17.849C47.3917 16.7479 46.6329 16.1968 45.6147 16.1968C44.9077 16.1968 44.2324 16.3321 43.5884 16.602C43.2143 16.7479 42.9238 16.935 42.7155 17.1638C43.3596 17.8079 43.6925 18.826 43.7131 20.2183C42.8196 19.6783 41.6138 19.4077 40.0969 19.4077C39.0575 19.4077 37.8211 19.5848 36.3871 19.9377C36.2419 19.9795 36.096 20.0212 35.9507 20.0624C36.0754 19.8136 36.2213 19.5636 36.3871 19.3142C36.99 18.379 37.7376 17.7349 38.6317 17.3814C38.4241 17.0909 38.1846 16.7891 37.9147 16.4774C36.543 14.9392 34.7143 14.1705 32.428 14.1705C30.7864 14.1705 29.3523 14.5034 28.1259 15.168C27.9389 15.8744 27.8454 16.7062 27.8454 17.662C27.8454 18.182 27.8765 18.639 27.9389 19.0343C27.0866 19.4289 26.3178 20.0212 25.632 20.8106C24.9462 21.58 24.385 22.4734 23.9486 23.4916C26.0267 22.4528 28.0424 22.297 29.9964 23.024C31.9086 23.7516 32.9997 24.6032 33.2697 25.5809C33.602 24.9362 34.3402 24.1986 35.4831 23.3669C36.8965 22.3487 38.3405 21.84 39.8163 21.84C41.2709 21.84 42.352 22.7122 43.0584 24.458C43.3914 25.352 43.7031 26.5161 43.9937 27.9495C47.3811 24.5621 49.8126 22.8681 51.2884 22.8681C52.1613 22.8681 52.7742 23.5439 53.1277 24.8944C53.3565 25.7049 53.4706 26.609 53.4706 27.6072C53.4706 28.0642 53.4083 28.6559 53.2836 29.3835C54.9464 29.4671 56.0163 29.9864 56.4945 30.9422C56.9728 31.9192 57.0345 32.7298 56.6816 33.3744C57.1804 33.0833 57.6686 32.688 58.1468 32.1892C58.5415 31.7733 58.8532 31.3893 59.082 31.0364C58.9991 29.81 58.822 28.7706 58.552 27.9189ZM58.6449 37.5512C58.6873 35.9513 57.7521 35.0055 55.8393 34.7143C53.9071 34.4026 52.8366 34.2885 52.6289 34.3714C54.3747 35.1819 55.5275 36.5642 56.0893 38.5182C56.4422 39.7228 56.5463 40.8662 56.401 41.9474C56.401 42.425 56.3904 42.8508 56.3698 43.2249C57.1804 42.6432 57.7521 41.9573 58.0844 41.168C58.4168 40.3569 58.6038 39.1517 58.6449 37.5512ZM59.6743 52.016C58.9467 52.4525 58.2815 52.7748 57.6792 52.9824C58.0738 53.1907 58.4068 53.4295 58.6767 53.6995C59.612 54.6765 60.0796 56.2975 60.0796 58.5626C60.0796 60.4749 59.7572 61.8465 59.1126 62.6783C58.4273 63.5505 57.2633 63.9976 55.6217 64.0181C55.954 64.2264 56.3592 64.4964 56.8375 64.8287C57.8974 65.411 58.9261 65.7016 59.9237 65.7016C61.3783 65.7016 62.5629 65.2028 63.477 64.2052C64.2463 63.3535 64.6722 62.3241 64.7557 61.1196C64.4646 59.8302 63.9034 58.615 63.0723 57.4715L60.5784 54.4788C62.3241 54.3335 63.7993 53.6583 65.0051 52.4525C66.1898 51.2267 66.7814 49.8444 66.7821 48.3063C66.7814 47.2881 66.7403 46.6852 66.6574 46.4982C66.6368 46.4153 66.5844 46.3217 66.5015 46.2176C65.6492 45.823 64.5475 45.6253 63.197 45.6253C62.49 45.6253 61.8977 45.6777 61.4201 45.7812C61.8771 46.0306 62.2094 46.3529 62.4177 46.7476C62.6459 47.1429 62.7082 47.5163 62.6047 47.8705C62.6047 49.4498 61.6277 50.832 59.6743 52.016ZM25.4138 50.8626C26.609 51.6395 28.0012 52.1594 29.5911 52.4213C24.9449 49.8419 22.5863 46.1634 22.5146 41.3856C22.2234 42.3801 22.0781 43.4606 22.0781 44.6277C22.0781 47.3505 23.1898 49.4292 25.4138 50.8626ZM14.0663 42.1961C14.0663 43.1108 14.1493 43.9525 14.3157 44.7213C12.7152 45.2207 11.5306 46.0723 10.7619 47.2775C10.4177 47.8056 10.1683 48.3668 10.0137 48.9616C10.5256 50.0857 11.3361 50.9387 12.4453 51.5173C13.0476 51.8346 14.0657 52.0734 15.5003 52.2349C15.1824 52.8696 14.7353 53.7325 14.1599 54.8217C13.5158 56.0481 13.1934 57.5027 13.1934 59.1861C13.1934 61.3889 13.9416 63.1247 15.438 64.3929C16.8508 65.5974 18.7007 66.2003 20.987 66.2003C21.3636 66.2003 21.6959 66.1904 21.9846 66.1692C22.6486 67.953 23.1056 69.0229 23.3563 69.3807C24.0003 70.3366 25.0191 70.8142 26.4114 70.8142C27.6165 70.8142 28.76 69.9725 29.8405 68.2896C30.4434 67.3543 30.9628 66.2733 31.3992 65.0469H31.6175C31.5551 66.4398 32.0021 67.7903 32.958 69.0996C34.2255 70.8454 36.0754 71.7188 38.507 71.7188C38.7271 71.7188 38.9553 71.6976 39.1928 71.6559C39.8188 71.2587 40.4111 70.718 40.9697 70.0348C42.3414 68.3307 43.8066 65.8057 45.3653 62.4594C45.0118 62.6677 44.6277 62.8647 44.2119 63.0517C42.9649 63.5923 41.8221 63.8623 40.7827 63.8623C38.3717 63.8623 36.1477 63.1764 34.1114 61.8048C33.5085 61.4101 33.0097 60.9942 32.615 60.5578C32.2615 60.9531 31.8463 61.3683 31.3681 61.8048C29.6223 63.4053 27.9283 64.2052 26.2867 64.2052C24.5203 64.2052 23.3357 63.987 22.7328 63.5505C21.8811 62.927 21.4546 61.5872 21.4546 59.529C21.4546 58.1156 21.4858 57.2228 21.5482 56.8481C21.6311 56.2246 21.8075 55.5599 22.0781 54.8529C19.3971 54.5206 17.6726 52.733 16.9032 49.4909C16.1139 46.2488 16.5603 42.4455 18.2437 38.0811C17.1838 38.4141 16.3003 38.8505 15.5939 39.3905C14.5757 40.201 14.0663 41.1362 14.0663 42.1961Z" fill="#FFC848"/>
<path d="M63.2584 19.6554C63.2584 16.6209 61.1074 15.1033 56.8053 15.1033C55.3919 15.1033 53.8338 15.5709 52.1292 16.5061C50.8822 17.2132 50.0929 17.7637 49.76 18.1584V17.8155C49.947 16.5061 49.8429 15.3839 49.4482 14.4486C48.8665 13.0982 47.7336 12.4223 46.0502 12.4223C44.8656 12.4223 43.7845 12.6929 42.8081 13.2328C41.9558 13.7111 41.2806 14.3557 40.7818 15.1657C40.283 14.4387 39.6389 13.8046 38.849 13.2646C37.332 12.2459 35.5233 11.7365 33.4246 11.7365C31.4706 11.7365 30.0578 12.1835 29.1849 13.077C28.6861 13.5764 28.3326 14.2722 28.125 15.1657C29.3514 14.501 30.7854 14.1681 32.4271 14.1681C34.7134 14.1681 36.5421 14.9368 37.9137 16.475C38.1837 16.7867 38.4231 17.0885 38.6307 17.379C37.7367 17.7325 36.9891 18.3766 36.3862 19.3118C36.2203 19.5612 36.0744 19.8112 35.9497 20.06C36.095 20.0189 36.2409 19.9771 36.3862 19.9353C37.8202 19.5824 39.0566 19.4054 40.0959 19.4054C41.6129 19.4054 42.8187 19.676 43.7121 20.2159C43.6916 18.8236 43.3586 17.8055 42.7146 17.1614C42.9228 16.9326 43.2134 16.7456 43.5874 16.5997C44.2315 16.3297 44.9067 16.1944 45.6138 16.1944C46.6319 16.1944 47.3907 16.7456 47.8895 17.8466C48.1183 18.3872 48.2742 18.9589 48.3571 19.5612C48.5859 19.3954 48.8353 19.2289 49.1053 19.0624C50.8928 17.9408 52.9709 17.379 55.3402 17.379C57.6053 17.379 58.7382 18.5743 58.7382 20.9641C58.7382 22.2734 58.3535 23.448 57.5847 24.4874C57.3559 24.7991 57.0853 25.1109 56.7735 25.4226C57.5429 25.8173 58.1352 26.6484 58.5511 27.9166C58.8211 28.7682 58.9981 29.8076 59.0811 31.034C59.3928 30.514 59.5487 30.0358 59.5487 29.5994C59.611 29.2047 59.5792 28.7265 59.4552 28.1653C59.3099 27.5213 59.0393 26.8978 58.644 26.2949C59.2675 25.7549 60.0369 25.1209 60.9515 24.3932C62.489 22.8969 63.2584 21.3176 63.2584 19.6554ZM66.7811 48.3039C66.7805 49.8421 66.1888 51.2243 65.0042 52.4501C63.7984 53.6559 62.3232 54.3312 60.5774 54.4764L63.0714 57.4692C63.9025 58.6126 64.4636 59.8278 64.7548 61.1172C64.7548 60.9507 64.7548 60.7948 64.7548 60.6496C64.7548 59.3814 64.6924 58.5503 64.5671 58.1556C64.3183 57.2821 63.7878 56.5863 62.9779 56.0663C64.0172 55.5887 65.0665 54.83 66.1258 53.7912C67.7887 52.149 68.6198 50.8191 68.6198 49.8003C68.6198 48.0545 67.914 46.8599 66.5005 46.2153C66.5835 46.3194 66.6358 46.4129 66.6564 46.4958C66.7393 46.6829 66.7805 47.2858 66.7811 48.3039ZM76.3204 48.0545C76.3204 48.8445 76.0193 49.7386 75.4164 50.7355C75.0211 51.3802 74.5535 51.9513 74.0136 52.4501C78.0039 51.1826 79.9984 49.1562 79.9984 46.3711C79.9984 44.6671 79.5002 43.3478 78.5027 42.4126C77.1516 41.1444 75.0529 40.895 72.2048 41.6638C73.5353 42.5161 74.5123 43.3372 75.1358 44.1272C75.9252 45.1865 76.3204 46.4958 76.3204 48.0545ZM68.2775 5.96924C65.8459 2.64419 62.8114 0.981354 59.1746 0.981354C57.4288 0.981354 55.4337 1.36604 53.1891 2.1348C51.9478 2.57124 50.8673 3.06005 49.947 3.60062C57.7506 3.34312 63.8295 5.21358 68.184 9.21199C71.8625 12.5988 73.7224 15.8933 73.7635 19.0936C73.8265 22.2946 73.2654 25.0791 72.0807 27.449C71.4741 28.6941 70.9024 29.6087 70.3662 30.1917C71.4523 29.4934 72.4816 28.7034 73.4518 27.8224C76.7775 24.8297 78.4397 21.6605 78.4397 18.3143C78.4397 15.1139 77.6603 12.7341 76.1016 11.1753C74.7505 9.82425 72.6936 8.95137 69.9297 8.55671C69.5139 7.76051 68.9627 6.89761 68.2775 5.96924Z" fill="#FFF569"/>
</g>
</svg>
