<svg width="52" height="70" viewBox="0 0 52 70" fill="none" xmlns="http://www.w3.org/2000/svg">
<path d="M21.9914 24.7891L21.1157 21.2995L24.8528 8.17815L28.1328 5.14304L21.9914 24.7891Z" fill="#EEBD14"/>
<path d="M21.9914 45.213L21.1157 48.7029L24.8528 61.8239L28.1328 64.8594L21.9914 45.213Z" fill="#EEBD14"/>
<path d="M28.3516 6.61167L25.7607 8.79132L22.0576 21.153L22.636 23.2656L28.3516 6.61167Z" fill="#D97A19"/>
<path d="M28.3516 63.3828L25.7607 61.2031L22.0576 48.8411L22.636 46.7289L28.3516 63.3828Z" fill="#D97A19"/>
<path d="M0.000255171 34.1666C0.000255154 33.7932 0.252681 33.4597 0.631317 33.3323L3.99877 26.3554L43.9093 26.3554L50.7003 29.822C51.0437 29.997 51.3314 30.2406 51.5482 30.5286C51.8374 30.9124 52 31.3754 52 31.86L52 38.1361C52 38.6206 51.8374 39.0833 51.5482 39.4674C51.3314 39.7551 51.0437 39.9986 50.7003 40.174L43.9093 43.6406L3.99878 43.6406L0.631317 36.6637C0.252681 36.5364 0.00025526 36.2028 0.000255243 35.8294L0.000255171 34.1666Z" fill="#52A0CA"/>
<path d="M52 31.86C52 31.0121 51.5021 30.2309 50.7003 29.822L43.9093 26.3554L31.3194 30.294L24.8385 30.294L17.9499 32.9238C17.5724 33.0683 17.3261 33.4094 17.3261 33.7875L17.3261 36.2082C17.3261 36.5866 17.5724 36.9277 17.9499 37.0719L24.8385 39.7017L31.3194 39.7017L43.9093 43.6406L50.7003 40.174C51.5021 39.7648 52 38.984 52 38.1361L52 31.86Z" fill="#2A3A5C"/>
<path d="M30.6641 33.9251C30.6641 32.8459 29.7194 31.9704 28.5537 31.9704L24.6922 31.9704C24.5598 31.9704 24.4282 31.994 24.3051 32.0392L20.3526 33.4954C20.0487 33.6077 19.8493 33.88 19.8493 34.183L19.8493 35.8186C19.8493 36.1213 20.0487 36.3939 20.3526 36.5058L24.3051 37.962C24.4282 38.0076 24.5598 38.0313 24.6922 38.0313L28.5537 38.0313C29.7194 38.0313 30.6641 37.1557 30.6641 36.0761L30.6641 33.9251Z" fill="#ED2125"/>
<path d="M30.6641 33.9229C30.6641 33.2762 30.3234 32.7045 29.8007 32.3487L26.4538 34.0043L26.144 34.9982L26.4538 35.9928L29.8007 37.6484C30.3234 37.2926 30.6641 36.7206 30.6641 36.0739L30.6641 33.9229Z" fill="#C12025"/>
<path d="M24.8433 30.2969L4.00357 26.3583L43.9141 26.3583L31.3242 30.2969L24.8433 30.2969Z" fill="#377DAE"/>
<path d="M24.8433 39.7017L4.00357 43.6406L43.9141 43.6406L31.3242 39.7017L24.8433 39.7017Z" fill="#377DAE"/>
<path d="M18.0703 34.9968L17.4667 33.3142L0.680933 33.3142L0.630989 33.3315C0.252354 33.4588 -7.26055e-05 33.7924 -7.25891e-05 34.1657L-7.25165e-05 35.8286C-7.25001e-05 36.2019 0.252354 36.5355 0.630989 36.6628L0.680933 36.6797L17.4667 36.6797L18.0703 34.9968Z" fill="#377DAE"/>
<path d="M52 31.8638C52 31.3792 51.8327 30.919 51.5435 30.5349L34.3741 32.6306L34.3741 37.3727L51.5435 39.4688C51.8327 39.0843 52 38.6244 52 38.1399L52 31.8638Z" fill="#377DAE"/>
<path d="M31.3194 30.3L34.3741 32.6328L52 32.003L52 31.866C52 31.3814 51.8374 30.9183 51.5482 30.5346C51.3314 30.2466 51.0437 30.0034 50.7003 29.828L43.9093 26.3614L31.3194 30.3Z" fill="#52A0CA"/>
<path d="M31.3194 39.7017L34.3741 37.3688L52 37.9987L52 38.1361C52 38.6206 51.8374 39.0833 51.5482 39.4674C51.3314 39.7551 51.0437 39.9986 50.7003 40.174L43.9093 43.6406L31.3194 39.7017Z" fill="#52A0CA"/>
<path d="M26.4531 34.0045L20.4902 33.4428L20.352 33.4934C20.0481 33.6057 19.8487 33.8779 19.8487 34.181L19.8487 35.8165C19.8487 36.1193 20.0481 36.3919 20.352 36.5038L20.4902 36.5547L26.4531 35.993L26.4531 34.0045Z" fill="#F1475D"/>
<path d="M41.3786 28.3347L43.4375 31.6384L42.82 31.9688L40.7611 28.665L41.3786 28.3347Z" fill="#2A3A5C"/>
<path d="M41.3786 28.3333L43.4375 31.6371L43.2412 31.7422L41.1823 28.4384L41.3786 28.3333Z" fill="#3E578D"/>
<path d="M41.3786 41.6641L43.4375 38.3603L42.82 38.0303L40.7611 41.3337L41.3786 41.6641Z" fill="#2A3A5C"/>
<path d="M41.3786 41.6641L43.4375 38.3603L43.2412 38.2556L41.1823 41.559L41.3786 41.6641Z" fill="#3E578D"/>
<path d="M42.4646 27.7565L44.5234 31.0603L43.9059 31.3906L41.8471 28.0869L42.4646 27.7565Z" fill="#2A3A5C"/>
<path d="M42.4646 27.7552L44.5234 31.059L44.3268 31.1641L42.2683 27.8603L42.4646 27.7552Z" fill="#3E578D"/>
<path d="M42.4646 42.2422L44.5234 38.9384L43.9059 38.6085L41.8471 41.9119L42.4646 42.2422Z" fill="#2A3A5C"/>
<path d="M42.4646 42.2422L44.5234 38.9384L44.3268 38.8337L42.2683 42.1371L42.4646 42.2422Z" fill="#3E578D"/>
<path d="M43.5505 27.1706L45.6094 30.4743L44.9919 30.8047L42.933 27.5009L43.5505 27.1706Z" fill="#2A3A5C"/>
<path d="M43.5505 27.1693L45.6094 30.473L45.4127 30.5781L43.3538 27.2744L43.5505 27.1693Z" fill="#3E578D"/>
<path d="M43.5505 42.8281L45.6094 39.5244L44.9919 39.1944L42.933 42.4978L43.5505 42.8281Z" fill="#2A3A5C"/>
<path d="M43.5505 42.8281L45.6094 39.5244L45.4127 39.4196L43.3538 42.723L43.5505 42.8281Z" fill="#3E578D"/>
<path d="M4.00357 26.3594L42.1045 21.1582L43.9141 26.3594L4.00357 26.3594Z" fill="#121832"/>
<path d="M4.00357 43.643L42.1045 48.8438L43.9141 43.643L4.00357 43.643Z" fill="#121832"/>
<path d="M42.0985 21.1558L45.4091 1.13426C45.4714 0.758013 45.3003 0.419424 45.0169 0.212111C44.7486 0.0155583 44.3793 -0.0629959 44.0115 0.0546475L28.1339 5.1428L22.2194 24.0625L42.0985 21.1558Z" fill="#52A0CA"/>
<path d="M42.0985 48.8434L45.4091 68.8654C45.4714 69.2416 45.3003 69.5802 45.0169 69.7875C44.7486 69.9837 44.3793 70.0626 44.0115 69.9446L28.1339 64.8568L22.2194 45.9371L42.0985 48.8434Z" fill="#52A0CA"/>
<path d="M45.306 1.21412L44.8247 3.40669L29.9925 8.15625L28.1349 5.14554L43.9172 0.087885C44.3063 -0.0365753 44.6943 0.0584746 44.9645 0.277625C45.2351 0.496775 45.388 0.840738 45.306 1.21412Z" fill="#121832"/>
<path d="M45.306 68.7873L44.8247 66.5947L29.9925 61.8448L28.1349 64.8559L43.9172 69.9132C44.3063 70.038 44.6943 69.943 44.9645 69.7238C45.2351 69.5043 45.388 69.1607 45.306 68.7873Z" fill="#121832"/>
<path d="M29.9922 8.1535L22.2201 24.0625L28.1346 5.1428L29.9922 8.1535Z" fill="#377DAE"/>
<path d="M29.9922 61.8483L22.2201 45.9397L28.1346 64.8594L29.9922 61.8483Z" fill="#377DAE"/>
<path d="M41.3357 6.60252L40.1832 11.8309L41.1603 12.0156L42.3125 6.78723L41.3357 6.60252Z" fill="#2A3A5C"/>
<path d="M41.9149 6.71191L40.7627 11.9407L41.1603 12.0156L42.3125 6.78723L41.9149 6.71191Z" fill="#3E578D"/>
<path d="M39.156 7.0084L38.0039 12.2371L38.9806 12.4219L40.1328 7.19348L39.156 7.0084Z" fill="#2A3A5C"/>
<path d="M39.7356 7.11816L38.583 12.3465L38.9806 12.4219L40.1328 7.19348L39.7356 7.11816Z" fill="#3E578D"/>
<path d="M36.6947 8.20443L35.5425 13.4328L36.5193 13.6172L37.6719 8.38916L36.6947 8.20443Z" fill="#2A3A5C"/>
<path d="M37.2743 8.31384L36.1221 13.5422L36.5193 13.6172L37.6719 8.38916L37.2743 8.31384Z" fill="#3E578D"/>
<path d="M41.3357 63.3984L40.1832 58.1704L41.1603 57.9853L42.3125 63.2141L41.3357 63.3984Z" fill="#2A3A5C"/>
<path d="M41.9149 63.2891L40.7627 58.0607L41.1603 57.9853L42.3125 63.2141L41.9149 63.2891Z" fill="#3E578D"/>
<path d="M39.156 62.9922L38.0039 57.7638L38.9806 57.5791L40.1328 62.8075L39.156 62.9922Z" fill="#2A3A5C"/>
<path d="M39.7356 62.8828L38.583 57.6548L38.9806 57.5795L40.1328 62.8079L39.7356 62.8828Z" fill="#3E578D"/>
<path d="M36.6947 61.7969L35.5425 56.5688L36.5193 56.3841L37.6719 61.6125L36.6947 61.7969Z" fill="#2A3A5C"/>
<path d="M37.2743 61.6875L36.1221 56.4595L36.5193 56.3841L37.6719 61.6125L37.2743 61.6875Z" fill="#3E578D"/>
<path d="M31.3223 21.5391C32.9607 21.5391 34.2891 20.3085 34.2891 18.7909C34.2891 17.273 32.9607 16.0424 31.3223 16.0424C29.6839 16.0424 28.3555 17.273 28.3555 18.7909C28.3555 20.3085 29.6839 21.5391 31.3223 21.5391Z" fill="#2A3A5C"/>
<path d="M31.3172 20.8984C32.57 20.8984 33.5859 19.9576 33.5859 18.797C33.5859 17.6363 32.57 16.6951 31.3172 16.6951C30.0644 16.6951 29.0485 17.6363 29.0485 18.797C29.0485 19.9576 30.0644 20.8984 31.3172 20.8984Z" fill="#ED2125"/>
<path d="M29.9467 20.4609C29.4035 20.0772 29.0516 19.4724 29.0516 18.7909C29.0516 18.2615 29.2641 17.7798 29.6126 17.4104L31.3203 18.1981L31.3203 19.6127L29.9467 20.4609Z" fill="#F1475D"/>
<path d="M31.3172 18.1971L33.0424 17.4274C33.3807 17.7943 33.5859 18.2696 33.5859 18.79C33.5859 19.4234 33.282 19.9898 32.8039 20.375L31.3172 19.6117L31.3172 18.1971Z" fill="#C12025"/>
<path d="M31.3223 48.4564C32.9607 48.4564 34.2891 49.6871 34.2891 51.205C34.2891 52.7225 32.9607 53.9531 31.3223 53.9531C29.6839 53.9531 28.3555 52.7225 28.3555 51.205C28.3555 49.6871 29.6839 48.4564 31.3223 48.4564Z" fill="#2A3A5C"/>
<path d="M31.3172 49.1092C32.57 49.1092 33.5859 50.0504 33.5859 51.211C33.5859 52.3717 32.57 53.3125 31.3172 53.3125C30.0644 53.3125 29.0485 52.3717 29.0485 51.211C29.0485 50.0504 30.0644 49.1092 31.3172 49.1092Z" fill="#ED2125"/>
<path d="M29.9467 49.5354C29.4035 49.9192 29.0516 50.5236 29.0516 51.2054C29.0516 51.7344 29.2641 52.2161 29.6126 52.5859L31.3203 51.7979L31.3203 50.3837L29.9467 49.5354Z" fill="#F1475D"/>
<path d="M31.3172 51.8002L33.0424 52.5703C33.3807 52.203 33.5859 51.7278 33.5859 51.2077C33.5859 50.5743 33.282 50.0079 32.8039 49.6227L31.3172 50.386L31.3172 51.8002Z" fill="#C12025"/>
<path d="M0.63254 33.3359L0.00147833 31.0246L1.97712 26.8942L4 26.359L0.63254 33.3359Z" fill="#EEBD14"/>
<path d="M0.63254 36.6637L0.00147823 38.975L1.97712 43.1051L4 43.6406L0.63254 36.6637Z" fill="#EEBD14"/>
<path d="M1.18974 32.1719L0.857944 30.9857L2.46773 27.4295L3.61719 27.1418L1.18974 32.1719Z" fill="#D97A19"/>
<path d="M1.18974 37.829L0.857944 39.0151L2.46773 42.5717L3.61719 42.8594L1.18974 37.829Z" fill="#D97A19"/>
</svg>
