<svg width="52" height="70" viewBox="0 0 52 70" fill="none" xmlns="http://www.w3.org/2000/svg">
<path d="M10.3582 33.9688L7.14708 33.501L9.09859 30.2331L25.0802 23.7163L27.2451 26.0211L10.3582 33.9688Z" fill="#EEBD14"/>
<path d="M10.3582 36.0366L7.14708 36.504L9.09859 39.7719L25.0802 46.2891L27.2451 43.9842L10.3582 36.0366Z" fill="#EEBD14"/>
<path d="M8.46775 33.6484L9.57014 31.423L24.449 25.3829L26.3389 27.2106L8.46775 33.6484Z" fill="#D97A19"/>
<path d="M8.46775 36.3516L9.57014 38.5771L24.449 44.6172L26.3389 42.789L8.46775 36.3516Z" fill="#D97A19"/>
<path d="M6.89557 34.1396C6.89557 33.7517 7.13591 33.405 7.49697 33.2727L27.2461 26.0228L39.8815 26.0228L46.3573 29.625C46.6848 29.8069 46.9591 30.06 47.1655 30.3589C47.4413 30.7581 47.5967 31.2392 47.5967 31.7428L47.5967 38.264C47.5967 38.7679 47.4413 39.2487 47.1655 39.6479C46.9591 39.9468 46.6848 40.1999 46.3573 40.3818L39.8815 43.9844L27.2461 43.9844L7.49697 36.7344C7.13591 36.6018 6.89557 36.2555 6.89557 35.8675L6.89557 34.1396Z" fill="#52A0CA"/>
<path d="M47.5967 31.7428C47.5967 30.8617 47.1219 30.0503 46.3573 29.625L39.8815 26.0228L27.876 30.1159L21.6958 30.1159L15.1269 32.8486C14.767 32.9984 14.5318 33.3529 14.5318 33.7457L14.5318 36.2611C14.5318 36.6543 14.767 37.0088 15.1269 37.1586L21.6958 39.8913L27.876 39.8913L39.8815 43.9844L46.3573 40.3818C47.1219 39.9569 47.5967 39.1455 47.5967 38.264L47.5967 31.7428Z" fill="#2A3A5C"/>
<path d="M27.2451 33.882C27.2451 32.7602 26.3439 31.8504 25.2327 31.8504L21.5501 31.8504C21.4238 31.8504 21.2987 31.8746 21.1813 31.922L17.4123 33.4355C17.1221 33.5518 16.9319 33.8347 16.9319 34.1496L16.9319 35.8492C16.9319 36.1638 17.1221 36.447 17.4123 36.5633L21.1813 38.0769C21.2987 38.1242 21.4238 38.1484 21.5501 38.1484L25.2327 38.1484C26.3439 38.1484 27.2451 37.2387 27.2451 36.1168L27.2451 33.882Z" fill="#ED2125"/>
<path d="M27.2451 33.879C27.2451 33.2067 26.9202 32.6126 26.4218 32.2429L23.2299 33.9633L22.9345 34.9964L23.2299 36.0296L26.4218 37.75C26.9202 37.3803 27.2451 36.7862 27.2451 36.1138L27.2451 33.879Z" fill="#C12025"/>
<path d="M21.6923 30.1094L27.2426 26.0163L39.8779 26.0163L27.8724 30.1094L21.6923 30.1094Z" fill="#377DAE"/>
<path d="M21.6923 39.8913L27.2426 43.9844L39.8779 43.9844L27.8724 39.8913L21.6923 39.8913Z" fill="#377DAE"/>
<path d="M15.2373 35.0016L14.6621 33.2529L7.54018 33.2529L7.49219 33.2708C7.13113 33.4031 6.89079 33.7497 6.89079 34.1377L6.89079 35.8656C6.89079 36.2532 7.13113 36.5998 7.49219 36.7325L7.54018 36.75L14.6621 36.75L15.2373 35.0016Z" fill="#377DAE"/>
<path d="M47.5967 31.7385C47.5967 31.2349 47.4372 30.7567 47.1614 30.3576L30.7884 32.5353L30.7884 37.4629L47.1614 39.6406C47.4372 39.2418 47.5967 38.7636 47.5967 38.2597L47.5967 31.7385Z" fill="#377DAE"/>
<path d="M27.876 30.1153L30.7884 32.5391L47.5967 31.885L47.5967 31.7422C47.5967 31.3017 47.4778 30.8786 47.2637 30.5123C47.0492 30.1463 46.7394 29.8369 46.3573 29.6245L39.8815 26.0223L27.876 30.1153Z" fill="#52A0CA"/>
<path d="M27.876 39.8913L30.7884 37.4672L47.5967 38.1217L47.5967 38.264C47.5967 38.7046 47.4778 39.128 47.2637 39.494C47.0492 39.8604 46.7394 40.1693 46.3573 40.3818L39.8815 43.9844L27.876 39.8913Z" fill="#52A0CA"/>
<path d="M0.00292969 21.3281L41.0795 21.3281L52.0029 17.0364L42.0837 12.9433L37.7339 1.6178L0.00292957 18.626L0.00292969 21.3281Z" fill="#52A0CA"/>
<path d="M0.00292883 48.6727L41.0795 48.6727L52.0029 52.9642L42.0837 57.0574L37.734 68.3828L0.00292894 51.3747L0.00292883 48.6727Z" fill="#52A0CA"/>
<path d="M27.2455 26.0156L30.7878 21.3262L41.0811 21.3262L39.8808 26.0156L27.2455 26.0156Z" fill="#121832"/>
<path d="M27.2455 43.9825L30.7878 48.6719L41.0811 48.6719L39.8808 43.9825L27.2455 43.9825Z" fill="#FEC432"/>
<path d="M0.00628281 18.625L2.5256 15.6843L32.0855 -0.00260901L37.7373 1.61681L0.00628281 18.625Z" fill="#EEBD14"/>
<path d="M0.00628199 51.3722L2.5256 54.3129L32.0855 70L37.7373 68.3803L0.00628199 51.3722Z" fill="#EEBD14"/>
<path d="M2.2229 17.7188L2.83945 16.841L32.0478 1.84657L34.792 2.94197L2.2229 17.7188Z" fill="#D97A19"/>
<path d="M2.2229 52.276L2.83945 53.1536L32.0478 68.1484L34.792 67.0527L2.2229 52.276Z" fill="#D97A19"/>
<path d="M23.2295 33.9672L17.5433 33.3832L17.4119 33.4365C17.1217 33.5528 16.9316 33.8357 16.9316 34.1506L16.9316 35.8502C16.9316 36.1647 17.1217 36.448 17.4119 36.5643L17.5433 36.6172L23.2295 36.0335L23.2295 33.9672Z" fill="#F1475D"/>
<path d="M37.4693 28.0756L39.4326 31.5087L38.8438 31.8516L36.8804 28.4189L37.4693 28.0756Z" fill="#2A3A5C"/>
<path d="M37.4693 28.075L39.4326 31.508L39.2451 31.6172L37.2818 28.1842L37.4693 28.075Z" fill="#3E578D"/>
<path d="M37.4693 41.9219L39.4326 38.4892L38.8438 38.1463L36.8804 41.579L37.4693 41.9219Z" fill="#2A3A5C"/>
<path d="M37.4693 41.9219L39.4326 38.4892L39.2451 38.38L37.2818 41.813L37.4693 41.9219Z" fill="#3E578D"/>
<path d="M38.5009 27.4741L40.4639 30.9071L39.875 31.25L37.9121 27.8173L38.5009 27.4741Z" fill="#2A3A5C"/>
<path d="M38.5009 27.4738L40.4639 30.9068L40.2767 31.0156L38.3137 27.583L38.5009 27.4738Z" fill="#3E578D"/>
<path d="M38.5009 42.5313L40.4639 39.0982L39.875 38.7553L37.9121 42.188L38.5009 42.5313Z" fill="#2A3A5C"/>
<path d="M38.5009 42.5313L40.4639 39.0982L40.2767 38.989L38.3137 42.422L38.5009 42.5313Z" fill="#3E578D"/>
<path d="M39.5396 26.8647L41.5029 30.2977L40.9145 30.6406L38.9511 27.2076L39.5396 26.8647Z" fill="#2A3A5C"/>
<path d="M39.5396 26.8644L41.5029 30.2974L41.3158 30.4063L39.3524 26.9736L39.5396 26.8644Z" fill="#3E578D"/>
<path d="M39.5396 43.1328L41.5029 39.6998L40.9145 39.3569L38.9511 42.7895L39.5396 43.1328Z" fill="#2A3A5C"/>
<path d="M39.5396 43.1328L41.5029 39.6998L41.3158 39.5906L39.3524 43.0236L39.5396 43.1328Z" fill="#3E578D"/>
<path d="M0.00292969 21.3281L52.0029 17.0364L41.0795 21.3281L0.00292969 21.3281Z" fill="#121832"/>
<path d="M0.0029295 48.6695L52.0029 52.9609L41.0795 48.6695L0.0029295 48.6695Z" fill="#FEC432"/>
<path d="M42.0811 12.9433L0.000301361 21.3281L0.000301243 18.626L37.7313 1.6178L42.0811 12.9433Z" fill="#377DAE"/>
<path d="M42.0811 57.0574L0.0003005 48.6727L0.000300618 51.3747L37.7313 68.3828L42.0811 57.0574Z" fill="#377DAE"/>
<path d="M17.8793 11.5824L13.1955 14.3777C12.7554 14.6401 12.5564 15.1667 12.7122 15.6583L12.7831 15.8838C12.9389 16.3747 13.403 16.6874 13.9117 16.6445L19.544 16.1675C19.8737 16.1395 20.169 15.9647 20.3547 15.6885L21.0181 14.7001C21.1422 14.5156 21.2061 14.3013 21.2061 14.0844C21.2061 13.9793 21.1909 13.8734 21.1603 13.7698L20.7782 12.4724C20.6623 12.0792 20.3425 11.7859 19.9434 11.7073L18.6424 11.4501C18.3803 11.3979 18.1093 11.4452 17.8793 11.5824Z" fill="#2A3A5C"/>
<path d="M17.8793 58.4173L13.1955 55.6221C12.7554 55.3598 12.5564 54.8329 12.7122 54.3414L12.7831 54.116C12.9389 53.6251 13.403 53.3122 13.9117 53.3552L19.544 53.8321C19.8737 53.8602 20.169 54.0348 20.3547 54.3111L21.0181 55.2997C21.1422 55.4843 21.2061 55.6983 21.2061 55.9154C21.2061 56.0206 21.1909 56.1265 21.1603 56.23L20.7782 57.5275C20.6623 57.9207 20.3425 58.2138 19.9434 58.2927L18.6424 58.5498C18.3803 58.6016 18.1093 58.5545 17.8793 58.4173Z" fill="#2A3A5C"/>
<path d="M13.8794 16.2475L19.5121 15.7705C19.7199 15.7529 19.9082 15.6415 20.0252 15.4671L20.689 14.4783C20.8049 14.3057 20.8378 14.0895 20.7791 13.8894L20.3966 12.592C20.3235 12.3441 20.1201 12.1574 19.868 12.1075L18.5669 11.8503C18.4012 11.8175 18.2291 11.8473 18.0837 11.9342L13.3998 14.7295C13.123 14.8946 12.996 15.2311 13.0938 15.5405L13.165 15.7656C13.2629 16.075 13.5593 16.2747 13.8794 16.2475Z" fill="#ED2125"/>
<path d="M13.8794 53.7539L19.5121 54.231C19.7199 54.2486 19.9082 54.3601 20.0252 54.5343L20.689 55.5229C20.8049 55.6956 20.8378 55.912 20.7791 56.1119L20.3966 57.4091C20.3235 57.6573 20.1201 57.8441 19.868 57.8939L18.5669 58.1511C18.4012 58.1839 18.2291 58.1539 18.0837 58.0671L13.3998 55.2721C13.123 55.1067 12.996 54.7701 13.0938 54.4609L13.165 54.2358C13.2629 53.9265 13.5593 53.7268 13.8794 53.7539Z" fill="#ED2125"/>
<path d="M13.0875 15.5405L13.1587 15.7656C13.2566 16.075 13.553 16.2747 13.8731 16.2475L14.1995 16.2199L18.7607 14.3061L18.4861 13.3236L13.6154 14.5968L13.3935 14.7295C13.1166 14.8946 12.9896 15.2311 13.0875 15.5405Z" fill="#F1475D"/>
<path d="M13.0875 54.4626L13.1587 54.2375C13.2566 53.9283 13.553 53.7286 13.8731 53.7556L14.1995 53.7833L18.7607 55.6969L18.4861 56.6797L13.6154 55.4061L13.3935 55.2739C13.1166 55.1085 12.9896 54.7719 13.0875 54.4626Z" fill="#F1475D"/>
<path d="M20.0168 12.1567L18.4847 13.3203L18.7594 14.3028C18.7594 14.3028 19.868 14.3214 20.753 14.3359C20.8076 14.1936 20.8154 14.0355 20.7714 13.8861L20.3889 12.5887C20.3317 12.3949 20.194 12.2395 20.0168 12.1567Z" fill="#C12025"/>
<path d="M20.0168 57.8438L18.4847 56.6802L18.7594 55.6975C18.7594 55.6975 19.868 55.6788 20.753 55.6643C20.8076 55.8068 20.8154 55.9649 20.7714 56.1142L20.3889 57.4114C20.3317 57.6056 20.194 57.7611 20.0168 57.8438Z" fill="#C12025"/>
<path d="M29.4736 7.49962L31.194 12.7656L32.0967 12.4648L30.3766 7.19884L29.4736 7.49962Z" fill="#2A3A5C"/>
<path d="M30.0089 7.32031L31.7293 12.5859L32.0967 12.4637L30.3766 7.19768L30.0089 7.32031Z" fill="#354878"/>
<path d="M31.4811 6.82775L33.2015 12.0938L34.1045 11.793L32.3841 6.52735L31.4811 6.82775Z" fill="#2A3A5C"/>
<path d="M32.0168 6.65588L33.7371 11.9219L34.1045 11.7993L32.3841 6.53363L32.0168 6.65588Z" fill="#354878"/>
<path d="M33.4814 6.16406L35.2015 11.4297L36.1045 11.1289L34.3841 5.86329L33.4814 6.16406Z" fill="#2A3A5C"/>
<path d="M34.0168 5.98399L35.7371 11.25L36.1045 11.1274L34.3841 5.86175L34.0168 5.98399Z" fill="#354878"/>
<path d="M29.4736 62.5041L31.194 57.2381L32.0967 57.5387L30.3766 62.8047L29.4736 62.5041Z" fill="#2A3A5C"/>
<path d="M30.0089 62.6821L31.7293 57.4164L32.0967 57.5387L30.3766 62.8047L30.0089 62.6821Z" fill="#354878"/>
<path d="M31.4811 63.1679L33.2015 57.902L34.1045 58.2028L32.3841 63.4688L31.4811 63.1679Z" fill="#2A3A5C"/>
<path d="M32.0168 63.3463L33.7371 58.0803L34.1045 58.2028L32.3841 63.4688L32.0168 63.3463Z" fill="#354878"/>
<path d="M33.4814 63.84L35.2015 58.5741L36.1045 58.875L34.3841 64.1406L33.4814 63.84Z" fill="#2A3A5C"/>
<path d="M34.0168 64.0183L35.7371 58.7524L36.1045 58.875L34.3841 64.1406L34.0168 64.0183Z" fill="#354878"/>
</svg>
