<svg width="133" height="113" viewBox="0 0 133 113" fill="none" xmlns="http://www.w3.org/2000/svg">
<path d="M47.0024 41.6526L47.3919 25.3626L47.4116 25.1494C48.2787 24.5251 49.3879 24.1079 50.6248 24.0027L69.9554 22.3469C78.785 21.5858 87.5896 24.2591 93.5723 29.5207L107.004 41.3245L47.0024 41.6526Z" fill="#F52349"/>
<path d="M47.1341 36.0625L47.0002 41.6547C47.0002 41.6547 72.0954 34.8711 101.909 36.851L95.1985 30.9536C68.4844 30.2896 47.1341 36.0625 47.1341 36.0625Z" fill="#E2262E"/>
<path d="M47.0014 71.3474L47.3909 87.6374L47.4107 87.8506C48.2777 88.4749 49.3869 88.8921 50.6238 88.9973L69.9545 90.6531C78.784 91.4142 87.5886 88.7409 93.5713 83.4793L107.003 71.6755L47.0014 71.3474Z" fill="#F52349"/>
<path d="M47.1332 76.9375L46.9993 71.3453C46.9993 71.3453 72.0944 78.1289 101.908 76.149L95.1975 82.0465C68.4834 82.7105 47.1332 76.9375 47.1332 76.9375Z" fill="#E2262E"/>
<path d="M115.193 65.6917L115.193 56.8281L41.0879 56.8281L41.0879 66.1692C52.1246 67.6333 79.5065 71.0433 92.4879 71.1627C99.4073 71.2254 107.792 68.6735 115.193 65.6917Z" fill="#7877EE"/>
<path d="M115.193 68.9769L115.193 65.6953C107.792 68.6772 99.4073 71.2291 92.4879 71.1664C79.5065 71.047 52.1246 67.637 41.0879 66.1729L41.0879 71.1664L76.1197 75.581C89.5933 77.279 103.131 74.9146 115.193 68.9769Z" fill="#6E5AEF"/>
<path d="M133 56.8281L119.203 56.8281L119.203 63.999C124.876 61.496 129.586 58.979 132.006 57.6325L133 56.8281Z" fill="#EF2D3C"/>
<path d="M128.411 60.5483L132.006 57.6406C129.586 58.9871 124.876 61.5041 119.203 64.0071L119.203 66.8551C122.406 65.0111 125.489 62.9133 128.411 60.5483Z" fill="#E2262E"/>
<path d="M115.193 44.4916C103.131 38.5545 89.5933 36.1901 76.1197 37.8888L41.0879 42.3033L41.0879 56.6379L115.193 56.8321L115.193 44.4916Z" fill="#6E5AEF"/>
<path d="M115.193 56.8277L41.0879 56.6328L41.0879 56.8277L115.193 56.8277Z" fill="#303650"/>
<path d="M119.203 56.8281L115.195 56.8281L115.195 68.9732C116.549 68.3063 117.889 67.6038 119.203 66.847L119.203 56.8281Z" fill="#F8CD22"/>
<path d="M119.203 56.8405L119.203 46.6268C117.889 45.87 116.549 45.1669 115.195 44.5L115.195 56.8405L119.203 56.8405Z" fill="#EEC318"/>
<path d="M128.411 52.924C125.489 50.559 122.406 48.4606 119.203 46.6172L119.203 56.8309L133 56.8309L128.411 52.924Z" fill="#E2262E"/>
<path d="M31.5605 56.6328L31.5605 61.4219C31.5605 66.8013 35.7837 71.1616 40.993 71.1616L41.088 71.1616L41.088 56.6328L31.5605 56.6328Z" fill="#858585"/>
<path d="M31.5605 56.8341L31.5605 52.0438C31.5605 46.6656 35.7837 42.3047 40.993 42.3047L41.088 42.3047L41.088 56.8341L31.5605 56.8341Z" fill="#717171"/>
<path d="M37.7119 56.5547L37.7119 61.3251C37.7119 66.6835 39.1191 71.0268 40.8549 71.0268L40.8865 71.0268L40.8865 56.5547L37.7119 56.5547Z" fill="#303650"/>
<path d="M37.7119 57.0033L37.7119 52.232C37.7119 46.875 39.1191 42.5313 40.8549 42.5313L40.8865 42.5313L40.8865 57.0033L37.7119 57.0033Z" fill="#303650"/>
<path d="M105.391 56.8912L105.396 56.7947C105.396 51.4623 101.209 47.1406 96.0456 47.1406C90.8816 47.1406 86.6953 51.4623 86.6953 56.7947L86.6995 56.8912C86.7503 62.1783 90.9136 66.4488 96.0456 66.4488C101.178 66.4488 105.34 62.1783 105.391 56.8912Z" fill="white" fill-opacity="0.1"/>
<path d="M89.375 56.6463C89.375 52.7581 92.4274 49.6056 96.194 49.6056C99.96 49.6056 103.013 52.7581 103.013 56.6463L103.008 56.7428L105.539 56.7428L105.544 56.6463C105.544 51.3139 101.357 46.9922 96.194 46.9922C91.03 46.9922 86.8437 51.3139 86.8437 56.6463L86.848 56.7428L89.3792 56.7428L89.375 56.6463Z" fill="#EEC318"/>
<path d="M96.1976 66.292C101.33 66.292 105.492 62.0215 105.543 56.7344L103.012 56.7344C102.961 60.5773 99.9321 63.6786 96.1976 63.6786C92.4624 63.6786 89.4336 60.5773 89.3828 56.7344L86.8516 56.7344C86.9024 62.0215 91.0656 66.292 96.1976 66.292Z" fill="#F8CD22"/>
<path d="M96.196 49.6016C92.4294 49.6016 89.377 52.7541 89.377 56.6422L89.3812 56.7387L103.01 56.7387L103.015 56.6422C103.015 52.7541 99.962 49.6016 96.196 49.6016Z" fill="#1C223C"/>
<path d="M96.1947 63.6786C99.9292 63.6786 102.958 60.5773 103.009 56.7344L89.3799 56.7344C89.4307 60.5773 92.4595 63.6786 96.1947 63.6786Z" fill="#303650"/>
<path d="M98.6897 54.3685C98.192 54.3685 97.7881 53.9663 97.7881 53.4694C97.7881 52.9731 98.192 52.5703 98.6897 52.5703C99.1873 52.5703 99.5912 52.9731 99.5912 53.4694C99.5912 53.9663 99.1873 54.3685 98.6897 54.3685Z" fill="#F4F5F5"/>
<path opacity="0.2" d="M64.9795 41.7385C66.0552 41.6583 67.1503 41.5793 68.2611 41.5021C70.8679 41.323 73.5612 41.1439 76.3022 40.9962C79.042 40.8436 81.8278 40.7103 84.6184 40.6307C87.4072 40.5349 90.2039 40.5168 92.9601 40.5644C93.6815 40.5982 94.3248 40.6169 95.0287 40.6874C95.7247 40.7513 96.4128 40.8243 97.084 40.931C98.4343 41.1204 99.7495 41.3996 101.031 41.7107C106.154 42.9921 110.654 44.9965 114.362 46.9213C114.644 47.0684 114.922 47.2155 115.194 47.3615L115.194 47.8813C114.85 47.7106 114.497 47.5394 114.138 47.3681C110.388 45.5886 105.857 43.7676 100.803 42.696C99.5415 42.4373 98.2505 42.2118 96.9365 42.0755C96.278 41.9941 95.6207 41.9501 94.9634 41.9127C94.3158 41.8681 93.5932 41.8723 92.9468 41.8645C90.2263 41.9055 87.4593 42.0134 84.6916 42.1979C81.9234 42.3674 79.1563 42.5899 76.434 42.8305C73.7111 43.0657 71.0336 43.3316 68.4425 43.5945C67.7961 43.6608 67.1551 43.7272 66.5202 43.7941L64.9795 41.7385Z" fill="white"/>
<path opacity="0.2" d="M115.195 47.887L115.195 47.3672C116.668 48.1577 118.007 48.9344 119.203 49.6652L119.203 50.0102C118.005 49.333 116.665 48.6142 115.195 47.887Z" fill="white"/>
<path opacity="0.2" d="M119.203 50.0012L119.203 49.6562C120.703 50.5722 121.977 51.4158 123.01 52.1213C125.017 53.4998 126.101 54.3705 126.101 54.3705C126.101 54.3705 124.986 53.539 122.934 52.2359C121.914 51.5913 120.663 50.8267 119.203 50.0012Z" fill="white"/>
<path d="M41.0879 66.1692L41.1006 56.8281L52.0085 56.8281L42.4756 66.3339L41.0879 66.1692Z" fill="#7877EE"/>
<path d="M41.1025 56.6384L41.1152 47.0905L64.3611 44.5156L52.1755 56.6673L41.1025 56.6384Z" fill="#6E5AEF"/>
<path d="M41.1025 56.8277L41.1031 56.6328L52.1761 56.6619L52.0105 56.8277L41.1025 56.8277Z" fill="#303650"/>
<path d="M41.0879 66.1719L42.4756 66.3371L42.4726 66.3407L41.0879 66.1719Z" fill="#EF294C"/>
<path d="M41.0879 66.1719L42.4726 66.3401L42.2761 66.5361L41.0879 66.1719Z" fill="#C51E25"/>
<path d="M25.8711 32.3133L44.4651 32.3133L44.4651 32.2766C44.4651 30.2959 41.3013 28.6706 37.058 28.6956C32.519 28.7228 25.8711 32.3133 25.8711 32.3133Z" fill="#EE2A38"/>
<path d="M25.8711 32.3203L44.4651 32.3203L44.4651 32.3564C44.4651 34.3375 41.3013 35.9633 37.058 35.938C32.519 35.9108 25.8711 32.3203 25.8711 32.3203Z" fill="#EE252F"/>
<path d="M31.4505 32.2252L31.3125 32.316L44.0109 32.316L44.0109 32.2931C44.0109 31.0569 41.7672 30.0547 39.0003 30.0547L38.9524 30.0585C35.8992 30.2989 33.1936 31.0802 31.4505 32.2252Z" fill="#FBCA62"/>
<path d="M31.4505 32.4286L31.3125 32.3203L44.0109 32.3203L44.0109 32.3471C44.0109 33.8306 41.7672 35.0338 39.0003 35.0338L38.9524 35.0293C35.8992 34.741 33.1936 33.8029 31.4505 32.4286Z" fill="#FBC442"/>
<path d="M35.8486 32.3186L35.8753 32.3087C37.6155 31.6791 39.6674 31.3682 41.7422 31.4195L41.9027 31.4236C42.8678 31.4474 43.7051 31.8005 44.007 32.31L44.0119 32.3186L35.8486 32.3186Z" fill="#FBFAB3"/>
<path d="M35.8486 32.3203L44.0119 32.3203C43.7022 33.0926 42.8631 33.6263 41.8972 33.6628L41.7354 33.6686C39.655 33.7471 37.5969 33.2758 35.8486 32.3203Z" fill="#F7F679"/>
<path d="M25.8701 79.7899L44.4642 79.7899L44.4642 79.7532C44.4642 77.7724 41.3003 76.1471 37.057 76.1722C32.518 76.1994 25.8701 79.7899 25.8701 79.7899Z" fill="#EE2A38"/>
<path d="M25.8701 79.7891L44.4642 79.7891L44.4642 79.8252C44.4642 81.8063 41.3003 83.4321 37.057 83.4068C32.518 83.3795 25.8701 79.7891 25.8701 79.7891Z" fill="#EE252F"/>
<path d="M31.4505 79.7018L31.3125 79.7925L44.0109 79.7925L44.0109 79.7696C44.0109 78.5334 41.7672 77.5313 39.0003 77.5313L38.9524 77.5351C35.8992 77.7754 33.1936 78.5568 31.4505 79.7018Z" fill="#FBCA62"/>
<path d="M31.4505 79.8973L31.3125 79.7891L44.0109 79.7891L44.0109 79.8159C44.0109 81.2994 41.7672 82.5026 39.0003 82.5026L38.9524 82.498C35.8992 82.2098 33.1936 81.2716 31.4505 79.8973Z" fill="#FBC442"/>
<path d="M35.8477 79.7873L35.8743 79.7774C37.6146 79.1479 39.6664 78.8369 41.7412 78.8883L41.9017 78.8923C42.8668 78.9161 43.7042 79.2693 44.0061 79.7788L44.0109 79.7873L35.8477 79.7873Z" fill="#FBFAB3"/>
<path d="M35.8477 79.7891L44.0109 79.7891C43.7012 80.5614 42.8621 81.095 41.8962 81.1315L41.7344 81.1374C39.654 81.2159 37.596 80.7445 35.8477 79.7891Z" fill="#F7F679"/>
<path d="M33.1779 60.0729C33.1562 59.9191 33.1229 59.7865 33.0788 59.6767C32.7256 57.7616 32.7806 55.7463 33.245 53.6328C32.5605 53.7209 32.0193 53.7872 31.6221 53.8312C31.07 55.7463 31.07 57.7724 31.6221 59.9077C32.0193 59.9517 32.5382 60.0072 33.1779 60.0729Z" fill="#858585"/>
<path d="M46.0981 51.2919C44.6849 51.2256 43.2935 51.2256 41.9245 51.2919C41.3507 55.3206 41.3507 59.1189 41.9245 62.6857C43.2935 62.752 44.6849 62.7406 46.0981 62.6525C46.5612 59.0634 46.5612 55.2772 46.0981 51.2919Z" fill="#EEC318"/>
<path d="M54.8057 61.2953C55.0047 60.3926 55.1371 59.4905 55.203 58.5878C55.3578 56.584 55.2254 54.5362 54.8057 52.445C53.6804 52.2026 52.5539 51.9934 51.4279 51.8173C50.1037 51.6195 48.7782 51.476 47.454 51.388C46.9902 51.3439 46.5373 51.3108 46.0964 51.2891C46.5596 55.2743 46.5596 59.0606 46.0964 62.6497C46.5373 62.6273 46.9902 62.5948 47.454 62.5508C49.86 62.3524 52.3114 61.9339 54.8057 61.2953ZM37.7173 51.6852C37.4307 51.7075 37.1544 51.7401 36.8895 51.7841C35.7636 51.9602 34.6486 52.1809 33.5444 52.445C33.4337 52.8412 33.3346 53.2374 33.2469 53.6335C32.7825 55.7471 32.7275 57.7623 33.0806 59.6774C33.1248 59.7872 33.158 59.9198 33.1798 60.0736C33.2904 60.4698 33.412 60.8774 33.5444 61.2953C34.9134 61.6921 36.3042 62.0002 37.7173 62.2203C39.1081 62.4404 40.5098 62.5948 41.9229 62.6828C41.3491 59.116 41.3491 55.3177 41.9229 51.2891C40.5098 51.3548 39.1081 51.4868 37.7173 51.6852Z" fill="#EF2D3C"/>
<path d="M54.8047 61.2878C54.9377 61.2221 55.0695 61.1563 55.202 61.09C57.2113 60.0993 58.8125 58.6237 60.0044 56.6646C58.746 54.8592 57.0124 53.4499 54.8047 52.4375C55.2243 54.5287 55.3568 56.5765 55.202 58.5803C55.1361 59.483 55.0036 60.3851 54.8047 61.2878Z" fill="#303650"/>
<path d="M54.6518 52.7031C55.7638 53.2344 56.7766 53.8609 57.732 54.6375C58.1892 55.009 58.5961 55.4365 58.9916 55.8707C59.8133 56.7704 59.3756 57.3046 58.7201 58.1103C56.4295 60.9269 53.183 61.5492 49.7641 62.0412C47.0327 62.4338 44.2246 62.5701 41.4702 62.3825C39.9017 62.2752 38.341 62.0587 36.7936 61.7801C36.0922 61.6535 35.3986 61.4883 34.7074 61.3176C33.8307 61.1011 33.6384 60.7327 33.4098 59.9331C33.3965 59.8867 33.3717 59.821 33.3118 59.8149C32.9 59.7721 32.4883 59.7293 32.0765 59.6847C31.5147 59.625 31.5062 57.8473 31.4706 57.4819C31.3835 56.5853 31.473 55.694 31.6084 54.8088C31.7651 53.7855 32.3087 54.0044 33.1486 53.8983C33.2858 53.8802 33.431 53.7602 33.463 53.6215C33.7502 52.3799 34.4486 52.4722 35.6689 52.2394C36.4894 52.0826 37.3142 51.991 38.1408 51.8782C39.8751 51.6418 41.6256 51.5381 43.3738 51.5068C47.1597 51.4392 50.9541 51.9252 54.6518 52.7031C54.8991 52.7556 55.2135 52.2442 54.9378 52.1863C47.8636 50.6981 40.6231 50.5522 33.5603 52.1924C33.4473 52.2183 33.3354 52.3486 33.3058 52.4571C33.0252 53.4991 32.7313 53.4496 31.6997 53.5672C31.5595 53.5835 31.421 53.7065 31.3853 53.844C30.8405 55.9358 30.8762 57.9498 31.3714 60.0489C31.3823 60.0959 31.4119 60.1605 31.4694 60.1671C31.8328 60.2069 32.9079 60.1436 33.0421 60.6139C33.1002 60.8159 33.1697 61.39 33.3433 61.5299C33.6668 61.791 34.5357 61.8633 34.9396 61.9628C35.8055 62.1763 36.6836 62.3349 37.5634 62.479C40.5118 62.962 43.4633 63.0603 46.4426 62.8878C47.8738 62.8058 49.3003 62.6225 50.7159 62.4C51.9875 62.1998 53.6849 62.0913 54.8301 61.5196C57.0898 60.3932 58.8368 58.8628 60.1913 56.7282C60.2294 56.6685 60.2657 56.5442 60.2179 56.4791C58.8374 54.5742 57.0566 53.1982 54.9378 52.1863C54.7159 52.0802 54.3845 52.5759 54.6518 52.7031Z" fill="#4D283E"/>
<path d="M54.5513 52.5856C55.1044 55.518 55.1528 58.448 54.5501 61.375C54.4774 61.7266 54.9858 61.4546 55.0348 61.217C55.646 58.2472 55.5952 55.278 55.0336 52.3052C54.9737 51.9868 54.5059 52.3462 54.5513 52.5856Z" fill="#4D283E"/>
<path d="M41.6691 51.378C41.1498 55.195 41.0869 59.0204 41.6703 62.8332C41.7187 63.1516 42.1895 62.7928 42.1526 62.5528C41.5759 58.7804 41.64 54.996 42.1538 51.2206C42.2028 50.8606 41.7023 51.1337 41.6691 51.378Z" fill="#4D283E"/>
<path d="M45.8409 51.4287C46.2579 55.1951 46.3002 58.9644 45.8397 62.7284C45.7955 63.089 46.2942 62.8158 46.3244 62.5704C46.7904 58.7648 46.745 54.9557 46.3232 51.1483C46.2881 50.8317 45.8137 51.1887 45.8409 51.4287Z" fill="#4D283E"/>
<path d="M33.4077 59.9448C32.8842 57.8536 33.0458 55.6581 33.4761 53.5663C33.5481 53.2153 33.0397 53.4873 32.9913 53.7242C32.5544 55.8492 32.3928 58.1002 32.9253 60.2258C33.0046 60.543 33.467 60.1818 33.4077 59.9448Z" fill="#4D283E"/>
<path d="M-4.80682e-07 57.2547L29.3135 57.2547L29.3135 57.1435C29.3135 51.1401 24.3256 46.2141 17.6361 46.2899C10.4804 46.3725 -4.80682e-07 57.2547 -4.80682e-07 57.2547Z" fill="#EE2A38"/>
<path d="M0 57.2422L29.3135 57.2422L29.3135 57.3517C29.3135 63.3561 24.3256 68.2837 17.6361 68.207C10.4804 68.1244 0 57.2422 0 57.2422Z" fill="#EE252F"/>
<path d="M8.79569 56.9848L8.57812 57.2598L28.5971 57.2598L28.5971 57.1905C28.5971 53.4437 25.0599 50.4063 20.6979 50.4063L20.6224 50.4178C15.8091 51.1464 11.5437 53.5146 8.79569 56.9848Z" fill="#FBCA62"/>
<path d="M8.79569 57.5703L8.57812 57.2422L28.5971 57.2422L28.5971 57.3235C28.5971 61.8197 25.0599 65.4664 20.6979 65.4664L20.6224 65.4526C15.8091 64.579 11.5437 61.7356 8.79569 57.5703Z" fill="#FBC442"/>
<path d="M15.7275 57.2414L15.7696 57.2115C18.5131 55.3034 21.7478 54.3609 25.0188 54.5166L25.2717 54.5289C26.7932 54.6009 28.1133 55.6713 28.5892 57.2156L28.5969 57.2414L15.7275 57.2414Z" fill="#FBFAB3"/>
<path d="M15.7275 57.2422L28.5969 57.2422C28.1086 59.5829 26.7858 61.2004 25.2631 61.311L25.008 61.3288C21.7282 61.5667 18.4837 60.1381 15.7275 57.2422Z" fill="#F7F679"/>
<path d="M17.7588 57.9702L27.6836 57.9702L27.6836 57.9506C27.6836 56.8934 25.9948 56.0259 23.7299 56.0392C21.3072 56.0538 17.7588 57.9702 17.7588 57.9702Z" fill="#EE2A38"/>
<path d="M17.7588 57.9688L27.6836 57.9688L27.6836 57.988C27.6836 59.0455 25.9948 59.9133 23.7299 59.8998C21.3072 59.8852 17.7588 57.9688 17.7588 57.9688Z" fill="#EE252F"/>
<path d="M20.7377 57.9242L20.6641 57.9726L27.442 57.9726L27.442 57.9604C27.442 57.3006 26.2444 56.7656 24.7675 56.7656L24.742 56.7677C23.1123 56.896 21.6681 57.313 20.7377 57.9242Z" fill="#FBCA62"/>
<path d="M20.7377 58.0265L20.6641 57.9688L27.442 57.9688L27.442 57.9831C27.442 58.7749 26.2444 59.4171 24.7675 59.4171L24.742 59.4147C23.1123 59.2608 21.6681 58.7601 20.7377 58.0265Z" fill="#FBC442"/>
<path d="M23.084 57.9672L23.0982 57.9619C24.0271 57.6259 25.1223 57.4599 26.2298 57.4873L26.3154 57.4895C26.8305 57.5022 27.2775 57.6906 27.4386 57.9626L27.4412 57.9672L23.084 57.9672Z" fill="#FBFAB3"/>
<path d="M23.084 57.9688L27.4412 57.9688C27.2759 58.381 26.828 58.6658 26.3125 58.6853L26.2261 58.6884C25.1157 58.7303 24.0172 58.4787 23.084 57.9688Z" fill="#F7F679"/>
</svg>
