<svg width="50" height="50" viewBox="0 0 50 50" fill="none" xmlns="http://www.w3.org/2000/svg">
<path d="M25 0C11.2 0 0 11.2 0 25C0 38.8 11.2 50 25 50C38.8 50 50 38.8 50 25C50 11.2 38.8 0 25 0ZM18.75 36.25V13.75L36.25 25L18.75 36.25Z" fill="#F52349"/>
<path d="M25 0C11.2 0 0 11.2 0 25C0 38.8 11.2 50 25 50C38.8 50 50 38.8 50 25C50 11.2 38.8 0 25 0ZM18.75 36.25V13.75L36.25 25L18.75 36.25Z" fill="#FEC432"/>
<circle cx="25" cy="25" r="25" fill="#FFB179"/>
<path d="M17.8584 32.1373H22.6203V17.8516H17.8584V32.1373ZM27.3822 32.1373H32.1441V17.8516H27.3822V32.1373Z" fill="white"/>
</svg>
